<svg id="Layer_1" data-name="Layer 1" xmlns="http://www.w3.org/2000/svg" viewBox="0 0 497.17 218.8"><defs><style>.cls-1{font-size:119.86px;fill:#231f20;font-family:Butler-Bold, Butler;font-weight:700;}.cls-2{fill:#d1e6e5;}.cls-3{fill:#9cd7d3;}.cls-4{fill:#ffd438;}.cls-5{fill:#faa228;}.cls-6{fill:#603713;}.cls-7{fill:#fff;}.cls-8{fill:#f49998;}.cls-9{fill:#ea8584;}.cls-10{fill:#402811;}.cls-11{font-size:26.03px;fill:#00483d;font-family:Butler-ExtraBold, Butler;font-weight:800;letter-spacing:0.13em;}.cls-12{letter-spacing:0.07em;}.cls-13{letter-spacing:0.13em;}.cls-14{letter-spacing:0.14em;}</style></defs><text class="cls-1" transform="translate(0 180.19)">BumbleD</text><path d="M139.37,41.63c11.83,11,14.44,27.38,5.82,36.68s-25.18,8-37-3-14.44-27.39-5.82-36.68S127.54,30.67,139.37,41.63Z" transform="translate(-7.42 -14)"/><path class="cls-2" d="M137.11,44.08c10.1,9.36,12.33,23.4,5,31.34s-21.52,6.79-31.63-2.57-12.33-23.4-5-31.35S127,34.71,137.11,44.08Z" transform="translate(-7.42 -14)"/><path class="cls-3" d="M137.11,44.08a32.61,32.61,0,0,0-2.7-2.21C123,48,122.23,61.75,112.71,69.36a6.75,6.75,0,0,1-4,1.76c.55.59,1.12,1.17,1.72,1.73,10.11,9.36,24.27,10.51,31.63,2.57S147.21,53.44,137.11,44.08Z" transform="translate(-7.42 -14)"/><path d="M185.42,41.63C173.59,52.59,171,69,179.59,78.31s25.19,8,37-3,14.44-27.39,5.82-36.68S197.25,30.67,185.42,41.63Z" transform="translate(-7.42 -14)"/><path class="cls-2" d="M187.68,44.08c-10.1,9.36-12.33,23.4-5,31.34s21.53,6.79,31.63-2.57,12.34-23.4,5-31.35S197.79,34.71,187.68,44.08Z" transform="translate(-7.42 -14)"/><path class="cls-3" d="M187.68,44.08a31.16,31.16,0,0,1,2.71-2.21c11.45,6.1,12.17,19.88,21.69,27.49a6.78,6.78,0,0,0,4,1.76c-.55.59-1.12,1.17-1.72,1.73-10.1,9.36-24.27,10.51-31.63,2.57S177.58,53.44,187.68,44.08Z" transform="translate(-7.42 -14)"/><path d="M196.59,71.35c0-23-15.58-41.63-34.79-41.63S127,48.36,127,71.35c0,21.77,14,39.64,31.78,41.47l3,3.12,2.62-3.08C182.41,111.25,196.59,93.28,196.59,71.35Z" transform="translate(-7.42 -14)"/><path class="cls-4" d="M194.34,74.39c.07-1,.11-2,.11-3,0-21.2-14.37-38.39-32.09-38.39s-32.1,17.19-32.1,38.39c0,1.1.05,2.18.13,3.25C135.91,91.74,188.81,91.53,194.34,74.39Z" transform="translate(-7.42 -14)"/><path class="cls-4" d="M138.48,97.3c5.85,7.64,14.25,12.44,23.6,12.44s17.74-4.8,23.6-12.44c-7.31,4-14.75,4.57-23.6,4.57S146.42,101.59,138.48,97.3Z" transform="translate(-7.42 -14)"/><path class="cls-4" d="M188.81,92.53a2,2,0,0,0,.14-.25c.67-1.22,3.48-9.46,4-10.78-11.09,11.06-50.47,11.83-61.56.77.55,1.31,3.11,8.79,3.78,10l.15.25C147.43,101.36,176.73,101.36,188.81,92.53Z" transform="translate(-7.42 -14)"/><path class="cls-5" d="M131.42,82.27c.55,1.31,3.11,8.79,3.78,10l.15.25a36,36,0,0,0,11.23,4.84c-.29-1-1.79-7.8-2-8.9C139.85,87.09,134.07,84.91,131.42,82.27Z" transform="translate(-7.42 -14)"/><path class="cls-5" d="M138.48,97.3a32.38,32.38,0,0,0,12.7,10.15c-2.62-3.21-2.46-3.93-3.89-6.77C143.69,99.39,141.85,99.1,138.48,97.3Z" transform="translate(-7.42 -14)"/><path class="cls-4" d="M194.34,74.39c.07-1,.11-2,.11-3" transform="translate(-7.42 -14)"/><path class="cls-6" d="M168.2,73.12c-6.46,2.67-6.34,2.67-12.8,0-1.21-.5,2.87,6.32,6.4,6.32S169.41,72.62,168.2,73.12Z" transform="translate(-7.42 -14)"/><path class="cls-5" d="M155.27,33.91c-14.31,3.86-25,19.15-25,37.44,0,1.1.05,2.18.13,3.25,1.54,4.8,6.82,8.25,13.73,10.33C139.68,67.28,142.69,46.68,155.27,33.91Z" transform="translate(-7.42 -14)"/><path d="M154.77,55.49a4.62,4.62,0,1,1-4.62-4.62A4.62,4.62,0,0,1,154.77,55.49Z" transform="translate(-7.42 -14)"/><path class="cls-7" d="M150.3,53.75a2.09,2.09,0,1,1-2.08-2.09A2.09,2.09,0,0,1,150.3,53.75Z" transform="translate(-7.42 -14)"/><path d="M156.69,34.48A6.45,6.45,0,0,1,155.6,31c0-2.36.32-2.15.94-4.14a9.29,9.29,0,0,0-.81-5.85c-.91-1.88-4-6.75-8.81-7a5.52,5.52,0,0,0-5.6,5.6,5.6,5.6,0,0,0,11,1.34,12.33,12.33,0,0,1,.81,1.26,4.68,4.68,0,0,1,.62,4.13,11.3,11.3,0,0,0-1,4.72,9.89,9.89,0,0,0,1.85,5.43c.43.6.8,1,1.37,1a1.47,1.47,0,0,0,1.48-1.56A4.53,4.53,0,0,0,156.69,34.48Z" transform="translate(-7.42 -14)"/><path class="cls-8" d="M135.94,73.27c0,1.66,2.57,3,5.75,3s5.76-1.34,5.76-3-2.58-3-5.76-3S135.94,71.61,135.94,73.27Z" transform="translate(-7.42 -14)"/><path class="cls-9" d="M141.67,70.29c-3.17,0-5.75,1.34-5.75,3s2.58,3,5.75,3a6.7,6.7,0,0,0,.89,0,53.53,53.53,0,0,1-.38-5.95Z" transform="translate(-7.42 -14)"/><path class="cls-8" d="M180.43,73.1c0,1.66,2.58,3,5.76,3s5.75-1.34,5.75-3-2.58-3-5.75-3S180.43,71.44,180.43,73.1Z" transform="translate(-7.42 -14)"/><path d="M177.84,47.12a12.91,12.91,0,0,0-9,3.68,12.85,12.85,0,0,0-12.81.06,13,13,0,1,0,2.28,3,9.22,9.22,0,0,1,4.19-1,9,9,0,0,1,4,1A13,13,0,0,0,177.84,73.1a13,13,0,1,0,0-26ZM146.79,70.69a10.58,10.58,0,1,1,10.59-10.57A10.58,10.58,0,0,1,146.79,70.69Zm31.05,0a10.58,10.58,0,1,1,10.59-10.57A10.58,10.58,0,0,1,177.84,70.69Z" transform="translate(-7.42 -14)"/><path d="M179.29,55.49a4.62,4.62,0,1,1-4.62-4.62A4.62,4.62,0,0,1,179.29,55.49Z" transform="translate(-7.42 -14)"/><path class="cls-7" d="M174.82,53.75a2.09,2.09,0,1,1-2.08-2.09A2.09,2.09,0,0,1,174.82,53.75Z" transform="translate(-7.42 -14)"/><path class="cls-10" d="M155.4,73.12c-1.21-.5,2.87,6.32,6.4,6.32S161.86,75.79,155.4,73.12Z" transform="translate(-7.42 -14)"/><path d="M167,34.48A6.45,6.45,0,0,0,168.05,31c0-2.36-.32-2.15-.93-4.14a9.36,9.36,0,0,1,.8-5.85c.92-1.88,4-6.75,8.82-7a5.53,5.53,0,0,1,5.6,5.6,5.6,5.6,0,0,1-11,1.34,10.84,10.84,0,0,0-.81,1.26,4.71,4.71,0,0,0-.63,4.13,11.3,11.3,0,0,1,1,4.72,9.9,9.9,0,0,1-1.86,5.43c-.42.6-.79,1-1.36,1a1.47,1.47,0,0,1-1.49-1.56A4.49,4.49,0,0,1,167,34.48Z" transform="translate(-7.42 -14)"/><text class="cls-11" transform="translate(90.61 209.95)">DESIGN<tspan class="cls-12" x="125.43" y="0"> </tspan><tspan class="cls-13" x="134.38" y="0">AND </tspan><tspan class="cls-14" x="216" y="0">B</tspan><tspan x="237.71" y="0">UILD</tspan></text></svg>