<?xml version="1.0" encoding="utf-8"?>
<!-- Generator: Adobe Illustrator 26.0.1, SVG Export Plug-In . SVG Version: 6.00 Build 0)  -->
<svg version="1.1" id="Layer_1" xmlns="http://www.w3.org/2000/svg" xmlns:xlink="http://www.w3.org/1999/xlink" x="0px" y="0px"
	 viewBox="0 0 64 64" style="enable-background:new 0 0 64 64;" xml:space="preserve">
<style type="text/css">
	.st0{fill:#43BBC4;}
</style>
<path class="st0" d="M10.6187,26.5776c0.0654,0.123,0.1797,0.2134,0.3145,0.2485c0.0415,0.0112,0.0845,0.0166,0.127,0.0166
	c0.0942,0,0.1875-0.0269,0.2686-0.0781l0.6914-0.4389v3.3922c-0.0001,0.0043-0.0024,0.0078-0.0024,0.0121
	s0.0023,0.0078,0.0024,0.0121v4.8884c-0.0001,0.0043-0.0024,0.0078-0.0024,0.0121s0.0023,0.0078,0.0024,0.0121v4.8879
	c-0.0001,0.0043-0.0024,0.0078-0.0024,0.0121s0.0023,0.0078,0.0024,0.0121v14.6158c0,0.2764,0.2236,0.5,0.5,0.5h4.7219
	c0.0085,0.0004,0.0156,0.0049,0.0242,0.0049s0.0157-0.0045,0.0242-0.0049h4.682c0.0085,0.0004,0.0156,0.0049,0.0242,0.0049
	s0.0157-0.0045,0.0242-0.0049h4.6815c0.0085,0.0004,0.0156,0.0049,0.0242,0.0049s0.0157-0.0045,0.0242-0.0049H30.02
	c0.2764,0,0.5-0.2236,0.5-0.5s-0.2236-0.5-0.5-0.5h-2.7935v-3h2.2408c0.0051,0.0002,0.0093,0.0029,0.0145,0.0029
	s0.0094-0.0027,0.0145-0.0029H30.02c0.2764,0,0.5-0.2236,0.5-0.5s-0.2236-0.5-0.5-0.5h-0.0381v-2.3799H30.02
	c0.2764,0,0.5-0.2236,0.5-0.5s-0.2236-0.5-0.5-0.5h-2.9492V43.583c0-0.2764-0.2236-0.5-0.5-0.5H15.6025
	c-0.2764,0-0.5,0.2236-0.5,0.5s0.2236,0.5,0.5,0.5h1.1636v2.2197H13.02v-6.248h2.9985c0.2764,0,0.5-0.2236,0.5-0.5V29.73
	c0-0.2764-0.2236-0.5-0.5-0.5H13.02v-3.539l1.5254-0.9683h13.5347H30.02c0.2764,0,0.5-0.2236,0.5-0.5s-0.2236-0.5-0.5-0.5h-1.4399
	v-1.8198H30.02c0.2764,0,0.5-0.2236,0.5-0.5s-0.2236-0.5-0.5-0.5h-1.4399V19.083H30.02c0.2764,0,0.5-0.2236,0.5-0.5
	s-0.2236-0.5-0.5-0.5h-1.9399c-0.2764,0-0.5,0.2236-0.5,0.5v5.1396h-11.448l14.1555-8.9775
	c0.2334-0.1479,0.3027-0.457,0.1548-0.6899c-0.1479-0.2339-0.4575-0.3022-0.6899-0.1548l-15.5552,9.8652
	c-0.022,0.0098-0.0439,0.0215-0.0649,0.0347l-2.8853,1.8306l-1.1655-2.1899l20.2021-12.5234
	c0.2344-0.1455,0.3066-0.4536,0.1611-0.6885c-0.1445-0.2334-0.4531-0.3071-0.6885-0.1611l-20.6001,12.77
	c-0.2236,0.1387-0.3013,0.4272-0.1777,0.6597L10.6187,26.5776z M13.02,50.6826h2.568c0.0051,0.0002,0.0093,0.0029,0.0145,0.0029
	s0.0094-0.0027,0.0145-0.0029h1.149v3H13.02V50.6826z M17.2467,47.3027c0.0068,0.0003,0.0125,0.0039,0.0194,0.0039
	s0.0126-0.0036,0.0194-0.0039h2.4435v2.3799h-3.6265v-2.3799H17.2467z M21.9772,47.3027c0.0068,0.0003,0.0125,0.0039,0.0194,0.0039
	s0.0126-0.0036,0.0194-0.0039h2.3395v2.3799H20.729v-2.3799H21.9772z M20.2145,50.6826c0.0051,0.0002,0.0093,0.0029,0.0145,0.0029
	s0.0094-0.0027,0.0145-0.0029h1.2531v3h-3.7305v-3H20.2145z M26.2266,53.6826h-3.73v-3h2.3444
	c0.0051,0.0002,0.0093,0.0029,0.0145,0.0029s0.0094-0.0027,0.0145-0.0029h1.3566V53.6826z M28.9819,49.6826h-3.6265v-2.3799h1.1959
	c0.0068,0.0003,0.0125,0.0039,0.0194,0.0039s0.0126-0.0036,0.0194-0.0039h2.3917V49.6826z M26.0708,46.3027h-3.5742V44.083h3.5742
	V46.3027z M17.7661,44.083h3.7305v2.2197h-3.7305V44.083z M15.1025,47.3027v2.3799H13.02v-2.3799H15.1025z M13.02,39.0547v-3.9121
	h2.4985v3.9121H13.02z M15.5186,30.23v3.9126H13.02V30.23H15.5186z"/>
<path class="st0" d="M33.5552,10.229c-0.1455,0.2349-0.0732,0.543,0.1611,0.6885l20.2021,12.5234l-1.1655,2.1899l-2.8853-1.8306
	c-0.0195-0.0122-0.04-0.0229-0.0615-0.0327l-15.5586-9.8672c-0.2329-0.1475-0.5415-0.0791-0.6899,0.1548
	c-0.1479,0.2329-0.0786,0.542,0.1548,0.6899l15.6099,9.8999c0.019,0.0122,0.04,0.0229,0.062,0.0327l1.5957,1.0131v27.9918h-2.1807
	V38.6455c0-0.2764-0.2236-0.5-0.5-0.5h-9.3569c-0.2764,0-0.5,0.2236-0.5,0.5v15.0371H33.98c-0.2764,0-0.5,0.2236-0.5,0.5
	s0.2236,0.5,0.5,0.5h14.2951c0.0085,0.0004,0.0156,0.0049,0.0242,0.0049s0.0157-0.0045,0.0242-0.0049H51.48
	c0.2764,0,0.5-0.2236,0.5-0.5V26.3257l0.6914,0.439c0.0811,0.0513,0.1743,0.0781,0.2686,0.0781c0.0425,0,0.0854-0.0054,0.127-0.0166
	c0.1348-0.0352,0.249-0.1255,0.3145-0.2485l1.6401-3.0801c0.1235-0.2324,0.0459-0.521-0.1777-0.6597l-20.6001-12.77
	C34.0093,9.9219,33.7002,9.9956,33.5552,10.229z M39.4424,39.1455h8.3569v14.5371h-8.3569V39.1455z"/>
<path class="st0" d="M33.98,23.7227c-0.2764,0-0.5,0.2236-0.5,0.5s0.2236,0.5,0.5,0.5h1.9399c0.2764,0,0.5-0.2236,0.5-0.5V18.583
	c0-0.2764-0.2236-0.5-0.5-0.5H33.98c-0.2764,0-0.5,0.2236-0.5,0.5s0.2236,0.5,0.5,0.5h1.4399v4.6396H33.98z"/>
<path class="st0" d="M31.5,6.4541v12.126v5.6426v33.3232c0,0.2764,0.2236,0.5,0.5,0.5s0.5-0.2236,0.5-0.5V24.2227v-5.6426V6.4541
	c0-0.2764-0.2236-0.5-0.5-0.5S31.5,6.1777,31.5,6.4541z"/>
<path class="st0" d="M45.8696,45.5773c-0.3955,0-0.7162,0.3206-0.7162,0.7162c0,0.3955,0.3207,0.7161,0.7162,0.7161
	c0.3956,0,0.7162-0.3206,0.7162-0.7161C46.5858,45.8979,46.2651,45.5773,45.8696,45.5773z"/>
</svg>
