<?xml version="1.0" encoding="utf-8"?>
<!-- Generator: Adobe Illustrator 26.0.1, SVG Export Plug-In . SVG Version: 6.00 Build 0)  -->
<svg version="1.1" id="Layer_1" xmlns="http://www.w3.org/2000/svg" xmlns:xlink="http://www.w3.org/1999/xlink" x="0px" y="0px"
	 viewBox="0 0 64 64" style="enable-background:new 0 0 64 64;" xml:space="preserve">
<style type="text/css">
	.st0{fill:#43BBC4;}
</style>
<path class="st0" d="M58.8916,43.9863c0-0.2764-0.2236-0.5-0.5-0.5h-6.0943l-0.006-2.157c2.8037-0.2612,5.0065-2.6246,5.0065-5.4954
	c0-1.9318-1.0257-3.7122-2.6483-4.7003c0.3224-0.5268,0.496-1.1323,0.496-1.7548c0-1.8584-1.5117-3.3701-3.3701-3.3701
	c-1.8574,0-3.3691,1.5117-3.3691,3.3701c0,0.6216,0.1735,1.2267,0.495,1.7543c-1.621,0.9886-2.6464,2.7685-2.6464,4.7007
	c0,2.8815,2.2188,5.2505,5.0364,5.4969l0.006,2.1554H40.498V26.4931l0.4023,0.2549c0.0811,0.0508,0.1738,0.0771,0.2676,0.0771
	c0.043,0,0.0859-0.0059,0.1279-0.0166c0.1348-0.0352,0.248-0.126,0.3135-0.249l1.3125-2.4678
	c0.124-0.2324,0.0459-0.5205-0.1777-0.6592L24.6484,12.2129c-0.1621-0.0996-0.3652-0.0996-0.5273,0L6.0254,23.4326
	c-0.2236,0.1387-0.3018,0.4268-0.1777,0.6592l1.3125,2.4678c0.0654,0.123,0.1787,0.2139,0.3135,0.249
	c0.1328,0.0332,0.2764,0.0137,0.3955-0.0605l0.4023-0.2549v21.668H5.6084c-0.2764,0-0.5,0.2236-0.5,0.5v2.7012
	c0,0.2764,0.2236,0.5,0.5,0.5h52.7764c0.2764,0,0.5-0.2236,0.5-0.5v-0.802c0.0009-0.0118,0.0068-0.0219,0.0068-0.0339V43.9863z
	 M47.2549,35.834c0-1.749,1.0186-3.3535,2.5938-4.0879c0.0226-0.0105,0.0375-0.0292,0.0578-0.0424
	c0.0207-0.0134,0.0442-0.0198,0.0633-0.0367c0.0071-0.0063,0.0098-0.0152,0.0164-0.0219c0.0258-0.0255,0.0443-0.0546,0.0637-0.0847
	c0.0162-0.0249,0.0338-0.0479,0.0451-0.0748c0.013-0.0308,0.018-0.0628,0.0246-0.0956c0.0062-0.0304,0.0139-0.0594,0.0143-0.0904
	c0.0004-0.0305-0.0068-0.0598-0.012-0.0904c-0.0059-0.0347-0.0114-0.0682-0.0247-0.1014c-0.0034-0.0085-0.0024-0.0175-0.0063-0.0258
	c-0.0103-0.0222-0.0286-0.0366-0.0416-0.0565c-0.0137-0.0212-0.0203-0.0452-0.0375-0.0646c-0.3906-0.4404-0.6055-1.002-0.6055-1.582
	c0-1.3066,1.0625-2.3701,2.3691-2.3701s2.3701,1.0635,2.3701,2.3701c0,0.5811-0.2158,1.1426-0.6074,1.5811
	c-0.0165,0.0186-0.0228,0.0416-0.0361,0.0618c-0.0139,0.0211-0.0331,0.0366-0.0439,0.0602
	c-0.0039,0.0083-0.0028,0.0172-0.0062,0.0256c-0.0132,0.0328-0.0183,0.066-0.0243,0.1003
	c-0.0054,0.0307-0.0129,0.0602-0.0125,0.0908c0.0004,0.032,0.0085,0.062,0.0149,0.0933c0.0065,0.0314,0.0109,0.0621,0.0232,0.0916
	c0.0118,0.0286,0.0306,0.0531,0.0479,0.0794c0.0187,0.0286,0.0362,0.0566,0.0608,0.0811c0.0067,0.0066,0.0093,0.0155,0.0164,0.0218
	c0.0225,0.02,0.0495,0.0297,0.0743,0.0449c0.0171,0.0106,0.0291,0.0265,0.0478,0.0352c1.5781,0.7344,2.5977,2.3389,2.5977,4.0879
	c0,2.3175-1.7592,4.2112-4.0093,4.4696l-0.0031-1.1057l1.5651-1.0134c0.2324-0.1504,0.2979-0.46,0.1484-0.6914
	c-0.1504-0.2334-0.4609-0.2959-0.6914-0.1484l-1.0255,0.6639l-0.0068-2.4442c-0.001-0.2764-0.2246-0.499-0.5-0.499h-0.001
	c-0.2764,0.001-0.5,0.2256-0.499,0.501l0.0014,0.5134l-0.8032-0.571c-0.2246-0.1592-0.5361-0.1064-0.6973,0.1172
	c-0.1602,0.2256-0.1074,0.5371,0.1172,0.6973l1.3867,0.9857l0.0083,2.9973C49.0275,40.0596,47.2549,38.1603,47.2549,35.834z
	 M57.8916,44.4863v3.6748h-5.5814L52.3,44.4863H57.8916z M51.3,44.4863l0.0102,3.6748H40.498v-3.6748H51.3z M35.3711,48.1445h-0.113
	c-0.0309-0.006-0.0594-0.0186-0.092-0.0186s-0.0612,0.0126-0.092,0.0186h-6.2019V36.6885h6.499V48.1445z M7.79,25.6143
	l-0.8398-1.5781l17.4346-10.8105l17.4346,10.8105l-0.8398,1.5781L24.6523,15.2695c-0.082-0.0518-0.1748-0.0771-0.2676-0.0771
	s-0.1855,0.0254-0.2676,0.0771L7.79,25.6143z M24.3848,16.2842l15.1133,9.5754v22.285h-3.127V36.1885c0-0.2764-0.2236-0.5-0.5-0.5
	h-7.499c-0.2764,0-0.5,0.2236-0.5,0.5v11.9561H9.2715v-22.285L24.3848,16.2842z M57.8848,50.8623H6.1084v-1.7012h22.2637h0.001
	h29.5117V50.8623z"/>
<path class="st0" d="M21.2393,26.6191h6.291c0.2764,0,0.5-0.2236,0.5-0.5v-5.0898c0-0.2764-0.2236-0.5-0.5-0.5h-6.291
	c-0.2764,0-0.5,0.2236-0.5,0.5v5.0898C20.7393,26.3955,20.9629,26.6191,21.2393,26.6191z M21.7393,24.0742h2.1455v1.5449h-2.1455
	V24.0742z M24.8848,25.6191v-1.5449h2.1455v1.5449H24.8848z M27.0303,23.0742h-2.1455v-1.5449h2.1455V23.0742z M23.8848,21.5293
	v1.5449h-2.1455v-1.5449H23.8848z"/>
<path class="st0" d="M33.4521,42.634c0.3258,0,0.59-0.2641,0.59-0.5899c0-0.3259-0.2642-0.59-0.59-0.59s-0.59,0.2641-0.59,0.59
	C32.8621,42.3699,33.1263,42.634,33.4521,42.634z"/>
<path class="st0" d="M13.0303,41.7715h9.4287c0.2764,0,0.5-0.2236,0.5-0.5v-5.083c0-0.2764-0.2236-0.5-0.5-0.5h-9.4287
	c-0.2764,0-0.5,0.2236-0.5,0.5v5.083C12.5303,41.5479,12.7539,41.7715,13.0303,41.7715z M13.5303,36.6885h8.4287v4.083h-8.4287
	V36.6885z"/>
</svg>
