<?xml version="1.0" encoding="utf-8"?>
<!-- Generator: Adobe Illustrator 26.0.1, SVG Export Plug-In . SVG Version: 6.00 Build 0)  -->
<svg version="1.1" id="Layer_1" xmlns="http://www.w3.org/2000/svg" xmlns:xlink="http://www.w3.org/1999/xlink" x="0px" y="0px"
	 viewBox="0 0 64 64" style="enable-background:new 0 0 64 64;" xml:space="preserve">
<style type="text/css">
	.st0{fill:#43BBC4;}
</style>
<rect x="59.1646" y="27.5036" transform="matrix(0.3784 -0.9257 0.9257 0.3784 11.1677 72.6368)" class="st0" width="1" height="1.0001"/>
<rect x="56.0743" y="25.7938" transform="matrix(0.3785 -0.9256 0.9256 0.3785 10.4085 68.9822)" class="st0" width="1.0003" height="1.8923"/>
<rect x="49.0677" y="22.9289" transform="matrix(0.3788 -0.9255 0.9255 0.3788 8.6961 60.706)" class="st0" width="1.0003" height="1.8927"/>
<rect x="42.0611" y="20.0644" transform="matrix(0.3788 -0.9255 0.9255 0.3788 6.9948 52.4419)" class="st0" width="1.0003" height="1.8923"/>
<rect x="45.5645" y="21.497" transform="matrix(0.3788 -0.9255 0.9255 0.3788 7.8453 56.5742)" class="st0" width="1.0003" height="1.8923"/>
<rect x="38.5579" y="18.632" transform="matrix(0.3785 -0.9256 0.9256 0.3785 6.1543 48.3219)" class="st0" width="1.0003" height="1.8927"/>
<rect x="35.0548" y="17.1996" transform="matrix(0.3785 -0.9256 0.9256 0.3785 5.3005 44.1859)" class="st0" width="1.0003" height="1.8923"/>
<rect x="52.5709" y="24.3617" transform="matrix(0.3785 -0.9256 0.9256 0.3785 9.5569 64.8495)" class="st0" width="1.0003" height="1.8923"/>
<rect x="57.3599" y="28.5106" class="st0" width="1" height="1"/>
<path class="st0" d="M32,21.9331c-1.5576,0-2.8247,1.2671-2.8247,2.8247c0,1.5571,1.2671,2.8242,2.8247,2.8242
	s2.8247-1.2671,2.8247-2.8242C34.8247,23.2002,33.5576,21.9331,32,21.9331z M32,26.582c-1.0063,0-1.8247-0.8184-1.8247-1.8242
	c0-1.0063,0.8184-1.8247,1.8247-1.8247s1.8247,0.8184,1.8247,1.8247C33.8247,25.7637,33.0063,26.582,32,26.582z"/>
<path class="st0" d="M62.7173,36.1875h-1.4438v-1.5117c0-1.7977-1.2446-3.2993-2.9136-3.7191v-0.5519h-1v0.4311
	c-2.0953,0.0369-3.79,1.7418-3.79,3.8399v1.5117h-3.624c-0.2764,0-0.5,0.2236-0.5,0.5v5.9238H35.8267v-6.4746
	c0-2.1104-1.7168-3.8271-3.8267-3.8271s-3.8267,1.7168-3.8267,3.8271v6.4746H14.5542v-5.9238c0-0.2764-0.2236-0.5-0.5-0.5h-3.624
	v-1.5117c0-2.0981-1.6948-3.803-3.79-3.8399v-3.2327l25.3617-10.3699l0.7365,0.3014l0.3789-0.9258l-0.9213-0.3771
	c-0.0005-0.0002-0.001-0.0004-0.0015-0.0006l-0.003-0.0012l-0.0002,0.0005c-0.1171-0.0481-0.2521-0.0527-0.3787-0.0005L3.687,27.73
	c-0.2554,0.1045-0.3779,0.3965-0.2734,0.6523c0.0791,0.1934,0.2661,0.3105,0.4629,0.3105c0.063,0,0.1274-0.0117,0.1895-0.0371
	l1.5742-0.6437v2.9446c-1.6689,0.4197-2.9136,1.9213-2.9136,3.7191v1.5117H1.2827c-0.2764,0-0.5,0.2236-0.5,0.5v6.4238v4.1953
	c0,0.2764,0.2236,0.5,0.5,0.5h61.4346c0.2764,0,0.5-0.2236,0.5-0.5v-4.1953v-6.4238
	C63.2173,36.4111,62.9937,36.1875,62.7173,36.1875z M54.5698,34.6758c0-1.5693,1.2817-2.8467,2.8574-2.8467
	c1.5693,0,2.8462,1.2773,2.8462,2.8467v1.5117h-5.7036V34.6758z M50.4458,37.1875h11.7715v5.4238H50.4458V37.1875z M29.1733,36.1367
	c0-1.5586,1.2681-2.8271,2.8267-2.8271s2.8267,1.2686,2.8267,2.8271v6.4746h-5.6533V36.1367z M3.7266,34.6758
	c0-1.5693,1.2769-2.8467,2.8462-2.8467c1.5757,0,2.8574,1.2773,2.8574,2.8467v1.5117H3.7266V34.6758z M13.5542,37.1875v5.4238
	H1.7827v-5.4238H13.5542z M62.2173,46.8066H1.7827v-3.1953h26.8906h6.6533h26.8906V46.8066z"/>
<path class="st0" d="M17.1089,30.9121c-0.2764,0-0.5,0.2236-0.5,0.5v5.1934c0,0.2764,0.2236,0.5,0.5,0.5h8.7065
	c0.2764,0,0.5-0.2236,0.5-0.5v-5.1934c0-0.2764-0.2236-0.5-0.5-0.5H17.1089z M25.3154,36.1055h-7.7065v-4.1934h7.7065V36.1055z"/>
<path class="st0" d="M37.6846,31.4121v5.1934c0,0.2764,0.2236,0.5,0.5,0.5h8.7065c0.2764,0,0.5-0.2236,0.5-0.5v-5.1934
	c0-0.2764-0.2236-0.5-0.5-0.5h-8.7065C37.9082,30.9121,37.6846,31.1357,37.6846,31.4121z M38.6846,31.9121h7.7065v4.1934h-7.7065
	V31.9121z"/>
</svg>
