<?xml version="1.0" encoding="UTF-8" standalone="no"?>
<!DOCTYPE svg PUBLIC "-//W3C//DTD SVG 1.1//EN" "http://www.w3.org/Graphics/SVG/1.1/DTD/svg11.dtd">
<svg width="100%" height="100%" viewBox="0 0 65 65" version="1.1" xmlns="http://www.w3.org/2000/svg" xmlns:xlink="http://www.w3.org/1999/xlink" xml:space="preserve" xmlns:serif="http://www.serif.com/" style="fill-rule:evenodd;clip-rule:evenodd;stroke-linejoin:round;stroke-miterlimit:2;">
    <g transform="matrix(1,0,0,1,-73,-161)">
        <g transform="matrix(0.0625,0,0,0.0833333,73.113,161.712)">
            <rect id="ico_documentation" x="0" y="0" width="1024" height="768" style="fill:none;"/>
            <g id="ico_documentation1" serif:id="ico_documentation">
                <g id="ico_documentation.svg" transform="matrix(16,0,0,12,510.232,384)">
                    <g transform="matrix(1,0,0,1,-32,-32)">
                        <g>
                            <path d="M17.461,48.383L20.865,48.383L20.865,50.93C20.865,51.757 21.538,52.43 22.365,52.43L40.651,52.43C40.716,52.43 40.781,52.417 40.842,52.392C40.902,52.367 40.958,52.331 41.005,52.284L47.893,45.396C47.955,45.333 47.991,45.253 48.014,45.169C48.02,45.148 48.023,45.129 48.026,45.108C48.029,45.086 48.039,45.065 48.039,45.043L48.039,17.113C48.039,16.286 47.366,15.613 46.539,15.613L43.139,15.613L43.139,13.07C43.139,12.243 42.466,11.57 41.639,11.57L17.461,11.57C16.634,11.57 15.961,12.243 15.961,13.07L15.961,46.883C15.961,47.71 16.634,48.383 17.461,48.383ZM41.151,50.723L41.151,46.042C41.151,45.767 41.376,45.542 41.651,45.542L46.332,45.542L41.151,50.723ZM47.039,17.113L47.039,44.543L41.651,44.543C40.824,44.543 40.151,45.215 40.151,46.043L40.151,51.43L22.365,51.43C22.09,51.43 21.865,51.206 21.865,50.93L21.865,17.113C21.865,16.837 22.09,16.613 22.365,16.613L42.624,16.613C42.629,16.613 42.633,16.616 42.639,16.616C42.644,16.616 42.648,16.613 42.653,16.613L46.539,16.613C46.815,16.613 47.039,16.837 47.039,17.113ZM16.961,13.07C16.961,12.794 17.185,12.57 17.461,12.57L41.639,12.57C41.914,12.57 42.139,12.794 42.139,13.07L42.139,15.613L22.365,15.613C21.538,15.613 20.865,16.286 20.865,17.113L20.865,47.383L17.461,47.383C17.186,47.383 16.961,47.159 16.961,46.883L16.961,13.07Z" style="fill:rgb(26,91,87);fill-rule:nonzero;"/>
                            <path d="M32.157,36.334L26.449,36.334C26.173,36.334 25.949,36.557 25.949,36.834C25.949,37.11 26.173,37.334 26.449,37.334L32.157,37.334C32.434,37.334 32.657,37.11 32.657,36.834C32.657,36.557 32.434,36.334 32.157,36.334Z" style="fill:rgb(26,91,87);fill-rule:nonzero;"/>
                            <path d="M42.455,31.762L26.449,31.762C26.173,31.762 25.949,31.986 25.949,32.262C25.949,32.539 26.173,32.762 26.449,32.762L42.455,32.762C42.732,32.762 42.955,32.539 42.955,32.262C42.955,31.986 42.731,31.762 42.455,31.762Z" style="fill:rgb(26,91,87);fill-rule:nonzero;"/>
                            <path d="M42.455,27.19L26.449,27.19C26.173,27.19 25.949,27.414 25.949,27.69C25.949,27.967 26.173,28.19 26.449,28.19L42.455,28.19C42.732,28.19 42.955,27.967 42.955,27.69C42.955,27.414 42.731,27.19 42.455,27.19Z" style="fill:rgb(26,91,87);fill-rule:nonzero;"/>
                            <path d="M42.455,22.619L26.449,22.619C26.173,22.619 25.949,22.842 25.949,23.119C25.949,23.395 26.173,23.619 26.449,23.619L42.455,23.619C42.732,23.619 42.955,23.395 42.955,23.119C42.955,22.842 42.731,22.619 42.455,22.619Z" style="fill:rgb(26,91,87);fill-rule:nonzero;"/>
                        </g>
                    </g>
                </g>
            </g>
        </g>
    </g>
</svg>
