<?xml version="1.0" encoding="utf-8"?>
<!-- Generator: Adobe Illustrator 26.0.1, SVG Export Plug-In . SVG Version: 6.00 Build 0)  -->
<svg version="1.1" id="Layer_1" xmlns="http://www.w3.org/2000/svg" xmlns:xlink="http://www.w3.org/1999/xlink" x="0px" y="0px"
	 viewBox="0 0 64 64" style="enable-background:new 0 0 64 64;" xml:space="preserve">
<style type="text/css">
	.st0{fill:#43BBC4;}
</style>
<path class="st0" d="M52.2822,23.7109h-4.623v-9.1899l3.5918-2.5113c0.6768-0.4736,0.8418-1.4102,0.3682-2.0889
	c-0.4736-0.6768-1.4121-0.8398-2.0879-0.3691l-37.6641,26.334c-0.6768,0.4736-0.8418,1.4102-0.3691,2.0879
	c0.2803,0.4014,0.7402,0.6406,1.2305,0.6406c0.3076,0,0.6045-0.0938,0.8584-0.2705l1.8721-1.3089v7.5071h-2.6162
	c-0.8965,0-1.625,0.7285-1.625,1.625s0.7285,1.625,1.625,1.625h0.3633v6.4268c0,0.2764,0.2236,0.5,0.5,0.5h38.5762
	c0.2764,0,0.5-0.2236,0.5-0.5V26.4609v-2.25C52.7822,23.9346,52.5586,23.7109,52.2822,23.7109z M51.7822,25.9609h-9.9512
	c-0.3447,0-0.625-0.2803-0.625-0.625s0.2803-0.625,0.625-0.625h9.9512V25.9609z M32.4785,37.5967h-5.5498v-8.5812l9.3799-6.5582
	v8.199h-4.1621c-0.8965,0-1.625,0.7285-1.625,1.625s0.7285,1.625,1.625,1.625h0.332V37.5967z M22.5273,39.8467
	c-0.3447,0-0.625-0.2803-0.625-0.625s0.2803-0.625,0.625-0.625h3.8771c0.0085,0.0004,0.0156,0.0049,0.0242,0.0049
	s0.0157-0.0045,0.0242-0.0049h6.0256v1.25H22.5273z M32.1465,32.9062c-0.3447,0-0.625-0.2803-0.625-0.625s0.2803-0.625,0.625-0.625
	h9.9512v1.25H32.1465z M46.6592,23.7109h-4.8281c-0.8965,0-1.625,0.7285-1.625,1.625s0.7285,1.625,1.625,1.625h0.2617v3.6953
	h-4.7842V21.758l9.3506-6.5377V23.7109z M13.0146,37.5234c-0.2217,0.1543-0.5459,0.0938-0.6963-0.1221
	c-0.1582-0.2266-0.1035-0.5391,0.1221-0.6963l37.6631-26.333c0.0879-0.0615,0.1875-0.0908,0.2861-0.0908
	c0.1582,0,0.3135,0.0742,0.4102,0.2129c0.1582,0.2266,0.1035,0.5391-0.1221,0.6963L13.0146,37.5234z M16.459,36.3356l9.4697-6.621
	v7.8821h-3.4014c-0.8965,0-1.625,0.7285-1.625,1.625s0.7285,1.625,1.625,1.625h0.2617v3.6953H16.459V36.3356z M12.2178,46.167
	c0-0.3447,0.2803-0.625,0.625-0.625h9.9512v1.25h-9.9512C12.498,46.792,12.2178,46.5117,12.2178,46.167z M14.2061,53.7188V47.792
	h9.0879c0.2764,0,0.5-0.2236,0.5-0.5v-2.25c0-0.0086-0.0045-0.0157-0.0049-0.0242v-4.1711h9.1895c0.2764,0,0.5-0.2236,0.5-0.5v-2.25
	v-4.1904h9.1191c0.2764,0,0.5-0.2236,0.5-0.5v-2.25c0-0.0086-0.0045-0.0157-0.0049-0.0242v-4.1711h8.6895v26.7578H14.2061z"/>
</svg>
