<?xml version="1.0" encoding="UTF-8" standalone="no"?>
<!DOCTYPE svg PUBLIC "-//W3C//DTD SVG 1.1//EN" "http://www.w3.org/Graphics/SVG/1.1/DTD/svg11.dtd">
<svg width="100%" height="100%" viewBox="0 0 65 64" version="1.1" xmlns="http://www.w3.org/2000/svg" xmlns:xlink="http://www.w3.org/1999/xlink" xml:space="preserve" xmlns:serif="http://www.serif.com/" style="fill-rule:evenodd;clip-rule:evenodd;stroke-linejoin:round;stroke-miterlimit:2;">
    <g transform="matrix(1,0,0,1,-73,0)">
        <g transform="matrix(0.0625,0,0,0.0833333,73.113,0)">
            <rect id="ico_communication" x="0" y="0" width="1024" height="768" style="fill:none;"/>
            <g id="ico_communication1" serif:id="ico_communication">
                <g id="ico_communication.svg" transform="matrix(16,0,0,12,510.232,384)">
                    <g transform="matrix(1,0,0,1,-32,-32)">
                        <g>
                            <path d="M13.704,49.895C13.704,51.309 14.854,52.46 16.269,52.46L35.54,52.46C36.955,52.46 38.105,51.309 38.105,49.895L38.105,46.454C38.105,46.452 38.104,46.451 38.104,46.449L38.104,42.906C38.104,42.629 37.88,42.406 37.604,42.406C37.328,42.406 37.104,42.629 37.104,42.906L37.104,46.45C37.104,46.862 36.942,47.234 36.683,47.514C36.397,47.823 35.993,48.019 35.54,48.019L16.269,48.019C15.406,48.019 14.704,47.317 14.704,46.454C14.704,46.45 14.702,46.447 14.702,46.444L14.702,14.104C14.702,13.244 15.406,12.544 16.272,12.544L18.808,12.544L20.625,14.488C20.852,14.726 21.124,14.911 21.417,15.048C21.437,15.058 21.456,15.072 21.477,15.081C21.798,15.221 22.147,15.297 22.501,15.297L29.315,15.297C29.665,15.297 30.01,15.222 30.33,15.082C30.45,15.03 30.562,14.96 30.673,14.89C30.708,14.868 30.748,14.853 30.782,14.829C30.83,14.795 30.87,14.751 30.916,14.714C31.008,14.641 31.101,14.571 31.183,14.485L33.007,12.544L35.544,12.544C36.404,12.544 37.104,13.244 37.104,14.104L37.104,21.094C37.104,21.371 37.328,21.594 37.604,21.594C37.88,21.594 38.104,21.371 38.104,21.094L38.104,14.104C38.104,12.692 36.956,11.544 35.544,11.544L32.798,11.544C32.794,11.544 32.791,11.541 32.787,11.541L19.022,11.541C19.017,11.541 19.014,11.544 19.01,11.544L16.272,11.544C14.855,11.544 13.702,12.692 13.702,14.104L13.702,46.45C13.702,46.456 13.704,46.462 13.704,46.469L13.704,49.895L13.704,49.895ZM31.633,12.541L30.453,13.799C30.159,14.113 29.745,14.293 29.313,14.293L22.494,14.293C22.064,14.293 21.649,14.113 21.355,13.797L20.176,12.541L31.633,12.541ZM37.105,49.895C37.105,50.758 36.403,51.46 35.54,51.46L16.269,51.46C15.406,51.46 14.704,50.758 14.704,49.895L14.704,48.484C14.728,48.503 14.756,48.517 14.781,48.535C14.827,48.568 14.874,48.597 14.922,48.627C15.006,48.679 15.093,48.727 15.184,48.769C15.236,48.794 15.287,48.818 15.341,48.839C15.437,48.876 15.537,48.906 15.64,48.932C15.691,48.945 15.741,48.961 15.794,48.971C15.935,48.998 16.08,49.013 16.228,49.015C16.243,49.015 16.257,49.019 16.272,49.019L35.544,49.019C35.57,49.019 35.594,49.013 35.619,49.012C35.753,49.008 35.884,48.996 36.011,48.972C36.074,48.96 36.133,48.941 36.194,48.925C36.285,48.901 36.374,48.875 36.46,48.842C36.522,48.818 36.58,48.791 36.639,48.763C36.722,48.723 36.801,48.68 36.878,48.633C36.931,48.6 36.983,48.568 37.033,48.531C37.056,48.514 37.082,48.502 37.105,48.484L37.105,49.895Z" style="fill:rgb(26,91,87);fill-rule:nonzero;"/>
                            <path d="M31.527,32.783L26.379,37.931C26.184,38.126 26.184,38.442 26.379,38.638C26.477,38.735 26.605,38.784 26.733,38.784C26.861,38.784 26.989,38.735 27.086,38.638L32.234,33.49C32.429,33.295 32.429,32.979 32.234,32.783C32.039,32.588 31.722,32.588 31.527,32.783Z" style="fill:rgb(26,91,87);fill-rule:nonzero;"/>
                            <path d="M41.628,32.783C41.433,32.979 41.433,33.295 41.628,33.49L46.775,38.638C46.873,38.735 47.001,38.784 47.129,38.784C47.257,38.784 47.385,38.735 47.482,38.638C47.678,38.442 47.678,38.126 47.482,37.931L42.335,32.783C42.14,32.588 41.823,32.588 41.628,32.783Z" style="fill:rgb(26,91,87);fill-rule:nonzero;"/>
                            <path d="M26.99,26.553L33.72,31.406L35.259,32.53C35.759,32.897 36.346,33.08 36.933,33.08C37.519,33.08 38.106,32.897 38.606,32.531L46.858,26.553C47.082,26.391 47.132,26.078 46.971,25.854C46.809,25.63 46.495,25.58 46.272,25.742L38.016,31.724C37.369,32.198 36.499,32.198 35.849,31.723L27.575,25.742C27.35,25.58 27.039,25.631 26.877,25.855C26.716,26.079 26.766,26.392 26.99,26.553Z" style="fill:rgb(26,91,87);fill-rule:nonzero;"/>
                            <path d="M26.852,22.55C25.799,22.55 24.806,23.061 24.191,23.916C24.19,23.918 24.188,23.918 24.187,23.92C24.187,23.921 24.186,23.922 24.186,23.922C24.185,23.923 24.185,23.923 24.185,23.924C24.184,23.924 24.184,23.925 24.184,23.926C23.777,24.487 23.563,25.152 23.565,25.847L23.565,38.153C23.564,39.034 23.906,39.864 24.528,40.487C24.529,40.487 24.529,40.487 24.529,40.487C24.529,40.487 24.529,40.487 24.529,40.488C25.152,41.108 25.978,41.45 26.856,41.45L47.003,41.45C47.883,41.45 48.71,41.108 49.332,40.488C49.333,40.487 49.333,40.487 49.333,40.487C49.333,40.487 49.333,40.487 49.333,40.487C49.956,39.864 50.297,39.035 50.296,38.153L50.296,25.847C50.296,25.146 50.078,24.477 49.666,23.912C49.665,23.911 49.665,23.91 49.664,23.909C49.046,23.058 48.05,22.55 46.999,22.55L26.852,22.55ZM48.855,24.497C48.855,24.497 48.856,24.497 48.856,24.498C48.856,24.498 48.856,24.498 48.856,24.498C49.144,24.892 49.296,25.358 49.296,25.847L49.296,38.153C49.297,38.768 49.059,39.345 48.626,39.78C48.192,40.212 47.616,40.45 47.002,40.45L26.856,40.45C26.245,40.45 25.669,40.212 25.236,39.78C24.803,39.345 24.565,38.768 24.565,38.153L24.565,25.846C24.564,25.36 24.712,24.898 24.996,24.508C24.996,24.507 24.996,24.506 24.997,24.506C24.997,24.505 24.998,24.505 24.998,24.504C25.427,23.904 26.14,23.515 26.862,23.55L47,23.55C47.731,23.55 48.424,23.904 48.855,24.497Z" style="fill:rgb(26,91,87);fill-rule:nonzero;"/>
                        </g>
                    </g>
                </g>
            </g>
        </g>
    </g>
</svg>
