<?xml version="1.0" encoding="utf-8"?>
<!-- Generator: Adobe Illustrator 26.0.1, SVG Export Plug-In . SVG Version: 6.00 Build 0)  -->
<svg version="1.1" id="Layer_1" xmlns="http://www.w3.org/2000/svg" xmlns:xlink="http://www.w3.org/1999/xlink" x="0px" y="0px"
	 viewBox="0 0 64 64" style="enable-background:new 0 0 64 64;" xml:space="preserve">
<style type="text/css">
	.st0{fill:#43BBC4;}
</style>
<path class="st0" d="M16.2041,53.3662h20.542h2.4941h8.5547c0.7266,0,1.3174-0.5918,1.3174-1.3184v-5.4775v-2.1357V34.3789h4.2471
	c1.1416,0,1.5205-0.502,1.6445-0.8018c0.124-0.2988,0.2109-0.9219-0.5967-1.7285l-7.668-7.6694V17.269c0-0.2764-0.2236-0.5-0.5-0.5
	h-6.9158l-5.2902-5.2979c-1.1221-1.1196-2.9453-1.1182-4.0635,0.0005L9.5918,31.8481c-0.8066,0.8081-0.7188,1.4302-0.5947,1.73
	c0.124,0.2988,0.5029,0.8008,1.6445,0.8008h4.2441v17.6689C14.8857,52.7744,15.4775,53.3662,16.2041,53.3662z M33.2393,38.3691
	h-2.4785H29.25c-0.1738,0-0.3154-0.1406-0.3154-0.3145v-5.5005c0-0.1738,0.1416-0.3149,0.3154-0.3149h5.5
	c0.1738,0,0.3154,0.1411,0.3154,0.3149v5.5005c0,0.1738-0.1416,0.3145-0.3154,0.3145H33.2393z M31.2607,39.3691h1.4785v5.0654
	c0,0.2764,0.2236,0.5,0.5,0.5h14.873v1.1357H32.0947c-0.46,0-0.834-0.374-0.834-0.834V39.3691z M9.9209,33.1943
	c-0.0166-0.0381,0-0.2612,0.3779-0.6396l20.3779-20.376c0.7305-0.7295,1.9189-0.7295,2.6494,0l5.4359,5.4432
	c0.0463,0.0464,0.1017,0.0833,0.1633,0.1086c0.0556,0.0229,0.1147,0.033,0.1739,0.035c0.006,0.0002,0.0109,0.0034,0.0169,0.0034
	h6.623v6.6172c0,0.0651,0.0132,0.1298,0.0385,0.1909c0.0255,0.0615,0.0623,0.1169,0.1086,0.1632l7.8138,7.8153
	c0.3779,0.3779,0.3955,0.6006,0.3799,0.6387c-0.0166,0.0391-0.1855,0.1846-0.7207,0.1846h-4.7471c-0.2764,0-0.5,0.2236-0.5,0.5
	v10.0557h-14.373v-4.5654H34.75c0.7256,0,1.3154-0.5898,1.3154-1.3145v-5.5005c0-0.7251-0.5898-1.3149-1.3154-1.3149h-5.5
	c-0.7256,0-1.3154,0.5898-1.3154,1.3149v5.5005c0,0.7246,0.5898,1.3145,1.3154,1.3145h1.0107v5.8672
	c0,1.0117,0.8223,1.834,1.834,1.834h16.0176v4.9775c0,0.1729-0.1455,0.3184-0.3174,0.3184h-8.5547h-2.4941h-20.542
	c-0.1729,0-0.3184-0.1455-0.3184-0.3184V33.8789c0-0.2764-0.2236-0.5-0.5-0.5h-4.7441
	C10.1064,33.3789,9.9365,33.2334,9.9209,33.1943z"/>
<path class="st0" d="M33.2402,32.9111h-2.4805c-0.2764,0-0.5,0.2236-0.5,0.5v3.7861c0,0.2764,0.2236,0.5,0.5,0.5h2.4805
	c0.2764,0,0.5-0.2236,0.5-0.5v-3.7861C33.7402,33.1348,33.5166,32.9111,33.2402,32.9111z M32.7402,33.9111v0.8936h-1.4805v-0.8936
	H32.7402z M31.2598,36.6973v-0.8926h1.4805v0.8926H31.2598z"/>
</svg>
