<?xml version="1.0" encoding="utf-8"?>
<!-- Generator: Adobe Illustrator 26.0.1, SVG Export Plug-In . SVG Version: 6.00 Build 0)  -->
<svg version="1.1" id="Layer_1" xmlns="http://www.w3.org/2000/svg" xmlns:xlink="http://www.w3.org/1999/xlink" x="0px" y="0px"
	 viewBox="0 0 64 64" style="enable-background:new 0 0 64 64;" xml:space="preserve">
<style type="text/css">
	.st0{fill:#43BBC4;}
</style>
<path class="st0" d="M32.9152,47.2931c0.218-1.0145-0.0921-2.0988-0.8361-2.8322c-0.8184-0.8291-2.0225-1.1211-3.1436-0.7646
	c-0.0065,0.0021-0.0107,0.0072-0.017,0.0095c-0.0305,0.011-0.0569,0.0306-0.0853,0.0478c-0.0289,0.0177-0.059,0.0326-0.0833,0.0553
	c-0.0048,0.0044-0.011,0.0058-0.0157,0.0104c-0.0177,0.0177-0.0254,0.0404-0.0399,0.0599
	c-0.0211,0.0283-0.0427,0.0547-0.0574,0.0865c-0.0134,0.0294-0.019,0.0596-0.0266,0.0906
	c-0.0078,0.0316-0.0168,0.0617-0.0184,0.0946c-0.0015,0.0341,0.0056,0.0667,0.011,0.1005c0.0039,0.0247,0.0002,0.0491,0.0081,0.0737
	c0.0021,0.0065,0.0072,0.0107,0.0095,0.017c0.0109,0.03,0.0301,0.0559,0.0469,0.0838c0.0178,0.0293,0.033,0.0597,0.056,0.0842
	c0.0045,0.0049,0.0059,0.0114,0.0107,0.0161l1.3936,1.3936l-0.9639,0.9639l-1.3936-1.3936
	c-0.0036-0.0036-0.0085-0.0046-0.0121-0.0081c-0.0256-0.0243-0.0577-0.0402-0.0886-0.0588
	c-0.0269-0.0161-0.0515-0.0355-0.0803-0.046c-0.0053-0.002-0.0089-0.0063-0.0143-0.0082c-0.0262-0.0089-0.0522-0.0056-0.0786-0.0099
	c-0.0325-0.0052-0.0638-0.0134-0.0967-0.0122c-0.0367,0.0012-0.0705,0.0114-0.1055,0.0206
	c-0.0271,0.0069-0.054,0.0108-0.0799,0.0223c-0.0358,0.016-0.0655,0.0402-0.0967,0.0642c-0.0175,0.0134-0.0383,0.02-0.0543,0.0361
	c-0.0035,0.0035-0.0046,0.0084-0.008,0.0121c-0.0238,0.0252-0.0395,0.0568-0.0579,0.0871c-0.0165,0.0273-0.0362,0.0525-0.047,0.0819
	c-0.002,0.0053-0.0063,0.0088-0.0082,0.0142c-0.1855,0.5576-0.2051,1.1426-0.0625,1.666c0.1191,0.5547,0.4004,1.0674,0.8135,1.4805
	c0.5967,0.5967,1.3848,0.916,2.1904,0.916c0.2173,0,0.435-0.0321,0.6513-0.0792l3.8223,3.8223
	c0.3154,0.3145,0.7393,0.4883,1.1816,0.4883c0.0488,0,0.0977-0.002,0.1475-0.0059c0.4932-0.043,0.9414-0.3018,1.2275-0.71
	c0.4648-0.6592,0.3643-1.6074-0.2354-2.207L32.9152,47.2931z M36.0967,52.6885c-0.1182,0.168-0.2949,0.2705-0.4971,0.2881
	c-0.2109,0.0186-0.3955-0.0527-0.5352-0.1924l-4.0195-4.0195c-0.0173-0.0173-0.0397-0.0248-0.0588-0.0391
	c-0.0296-0.0223-0.0576-0.0453-0.0912-0.0606c-0.0267-0.012-0.0543-0.0161-0.0822-0.0232
	c-0.0344-0.0089-0.0674-0.0189-0.1035-0.0201c-0.0343-0.0013-0.067,0.0069-0.101,0.0127c-0.0245,0.0043-0.0488,0.0009-0.0731,0.0092
	c-0.7529,0.248-1.5684,0.0479-2.1348-0.5186c-0.2764-0.2764-0.4639-0.6162-0.5488-1.0088
	c-0.0129-0.0479-0.0077-0.0988-0.0167-0.1475l0.9756,0.9756c0.0977,0.0977,0.2256,0.1465,0.3535,0.1465s0.2559-0.0488,0.3535-0.1465
	l1.6709-1.6709c0.1953-0.1953,0.1953-0.5117,0-0.707L30.21,44.5879c0.4324,0.0677,0.8412,0.2556,1.1621,0.5811
	c0.5566,0.5488,0.7598,1.3818,0.5156,2.1221c-0.0076,0.0228-0.0042,0.0455-0.0083,0.0684
	c-0.0066,0.0363-0.0146,0.0715-0.0131,0.1083c0.0013,0.0326,0.0107,0.0624,0.0182,0.0937c0.0073,0.0309,0.0123,0.0614,0.0256,0.0908
	c0.015,0.033,0.0377,0.0604,0.0594,0.0895c0.0143,0.0192,0.0218,0.0416,0.0392,0.0591l3.9629,3.9629
	C36.1924,51.9844,36.3115,52.3838,36.0967,52.6885z"/>
<path class="st0" d="M52.8564,30.2085h-1.3848H12.7041v-4.3989h2.5996v1.2993c0,0.2764,0.2236,0.5,0.5,0.5s0.5-0.2236,0.5-0.5
	v-3.5986c0-0.2764-0.2236-0.5-0.5-0.5s-0.5,0.2236-0.5,0.5v1.2993h-2.5996V14.5117c0-1.7085,1.3906-3.0986,3.0996-3.0986h1.7998
	c1.4879,0,2.7347,1.0662,3.0294,2.4952c-2.002,0.3564-3.5294,2.1002-3.5294,4.2031c0,0.2764,0.2236,0.5,0.5,0.5h7.5596
	c0.2764,0,0.5-0.2236,0.5-0.5c0-2.2737-1.789-4.1212-4.0311-4.2535c-0.3298-1.961-2.0092-3.4447-4.0284-3.4447h-1.7998
	c-2.2607,0-4.0996,1.8389-4.0996,4.0986v15.6968h-0.5605c-1.2686,0-2.2998,1.0317-2.2998,2.2998s1.0312,2.2993,2.2998,2.2993h0.5566
	v8.502c0,3.248,2.6465,5.8906,5.8994,5.8906h1.3027v2.335c0,0.2764,0.2236,0.5,0.5,0.5s0.5-0.2236,0.5-0.5v-2.335h3.2848
	c0.2292,4.6691,4.0878,8.3994,8.8129,8.3994s8.5836-3.7303,8.8129-8.3994h3.2848v2.335c0,0.2764,0.2236,0.5,0.5,0.5
	s0.5-0.2236,0.5-0.5v-2.335h1.3027c3.2529,0,5.8994-2.6426,5.8994-5.8906v-8.502h0.5566c1.2686,0,2.2998-1.0312,2.2998-2.2993
	S54.125,30.2085,52.8564,30.2085z M24.6125,17.6113h-6.4584c0.243-1.5699,1.5913-2.7788,3.2278-2.7788
	C23.0201,14.8325,24.3694,16.0414,24.6125,17.6113z M32,56.5996c-4.3203,0-7.835-3.5146-7.835-7.835
	c0-0.0178,0.0026-0.0358,0.0027-0.0536c0.0001-0.0038,0.0022-0.007,0.0022-0.0109c0-0.0023-0.0012-0.0042-0.0013-0.0065
	c0.0045-0.5135,0.0549-1.0268,0.1605-1.5609c0.7705-3.5938,3.9971-6.2021,7.6709-6.2021c3.6729,0,6.8975,2.6064,7.6709,6.1982
	c0.1055,0.5406,0.1559,1.0532,0.1605,1.5648c-0.0001,0.0023-0.0013,0.0042-0.0013,0.0065c0,0.0038,0.0021,0.007,0.0022,0.0108
	c0.0001,0.0178,0.0027,0.0358,0.0027,0.0536C39.835,53.085,36.3203,56.5996,32,56.5996z M51.2998,43.3096
	c0,2.6963-2.1982,4.8906-4.8994,4.8906h-5.5942c-0.0264-0.4175-0.0711-0.8403-0.1558-1.2686c0-0.0029-0.001-0.0059-0.001-0.0078
	c-0.8701-4.0527-4.5068-6.9932-8.6494-6.9932s-7.7793,2.9404-8.6504,7.001c-0.0847,0.4283-0.1295,0.851-0.1558,1.2686h-5.5942
	c-2.7012,0-4.8994-2.1943-4.8994-4.8906v-8.5h38.5996V43.3096z M52.8564,33.8076H11.1436c-0.7285,0-1.2998-0.5703-1.2998-1.2993
	s0.5713-1.2998,1.2998-1.2998h1.3848h38.9434h1.3848c0.7285,0,1.2998,0.5708,1.2998,1.2998S53.585,33.8076,52.8564,33.8076z"/>
</svg>
