<?xml version="1.0" encoding="utf-8"?>
<!-- Generator: Adobe Illustrator 26.0.1, SVG Export Plug-In . SVG Version: 6.00 Build 0)  -->
<svg version="1.1" id="Layer_1" xmlns="http://www.w3.org/2000/svg" xmlns:xlink="http://www.w3.org/1999/xlink" x="0px" y="0px"
	 viewBox="0 0 64 64" style="enable-background:new 0 0 64 64;" xml:space="preserve">
<style type="text/css">
	.st0{fill:#43BBC4;}
</style>
<path class="st0" d="M29.6173,47.0402c-0.8561,0.6906-1.3424,1.7272-1.3097,2.8422l0.0381,1.3291
	c0.0039,0.1353,0.0625,0.2637,0.1621,0.355c0.0928,0.0845,0.2129,0.1309,0.3379,0.1309c0.0098,0,0.0205-0.0005,0.0303-0.001
	l1.2725-0.0771c1.0215-0.062,1.9639-0.5674,2.6152-1.4214c1.8828,0.4409,10.9173,2.323,18.6703,0.0048
	c0.618,0.8203,1.5551,1.3534,2.5895,1.4166l1.2725,0.0771c0.0098,0.0005,0.0205,0.001,0.0303,0.001
	c0.124,0,0.2451-0.0464,0.3369-0.1309c0.1006-0.0913,0.1592-0.2192,0.1631-0.3545l0.0391-1.3291
	c0.0319-1.1157-0.4553-2.1524-1.3107-2.8426c2.7534-12.9576,0.5204-22.9097,0.0206-24.8483c0.8457-0.6899,1.3223-1.7236,1.29-2.832
	l-0.0391-1.3291c-0.0039-0.1353-0.0625-0.2632-0.1631-0.3545c-0.0996-0.0908-0.2334-0.1367-0.3672-0.1299l-1.2725,0.0771
	c-1.0425,0.0632-1.9864,0.6033-2.606,1.4371c-9.723-2.0735-16.9767-0.4689-18.6557-0.027
	c-0.6182-0.8262-1.5752-1.3477-2.6133-1.4102l-1.2725-0.0771c-0.1357-0.0034-0.2676,0.0386-0.3682,0.1299
	c-0.0996,0.0913-0.1582,0.2197-0.1621,0.355l-0.0381,1.3286c-0.0332,1.1079,0.4434,2.1421,1.2891,2.832
	C29.0969,24.1306,26.8639,34.0826,29.6173,47.0402z M30.4434,21.5747c-0.7373-0.4858-1.1621-1.3027-1.1357-2.186l0.0234-0.813
	l0.7568,0.0459c0.8135,0.0493,1.5586,0.4912,2.0381,1.2568c0.1211,0.1909,0.3555,0.2759,0.5684,0.2119
	c0.0801-0.0239,8.0156-2.3711,18.8223,0.0098c0.2269,0.0488,0.4404-0.066,0.5423-0.2597c0.0101-0.0132,0.025-0.022,0.0339-0.0362
	c0.4326-0.6909,1.1777-1.1333,1.9912-1.1826l0.7578-0.0459l0.0234,0.8135c0.0254,0.8828-0.3994,1.6997-1.1367,2.1855
	c-0.1836,0.1211-0.2666,0.3491-0.2041,0.5605c0.0322,0.1055,3.1074,10.7153-0.0088,25.0083
	c-0.0005,0.0026,0.0004,0.005-0.0001,0.0076c-0.009,0.0444-0.0051,0.0886-0.002,0.1331c0.0015,0.0204-0.0034,0.0414,0.0005,0.0612
	c0.0079,0.0407,0.0281,0.0775,0.0458,0.1151c0.0096,0.0201,0.0134,0.0427,0.0256,0.0615c0.0162,0.025,0.0416,0.0433,0.0624,0.0653
	c0.0242,0.0256,0.0451,0.0538,0.0745,0.074c0.0025,0.0017,0.0037,0.0045,0.0062,0.0062c0.7373,0.4858,1.1621,1.3032,1.1367,2.186
	l-0.0234,0.8135l-0.7578-0.0459c-0.8145-0.0498-1.5586-0.4917-2.0342-1.2529l-0.0083,0.0051
	c-0.1178-0.1904-0.3471-0.2917-0.5679-0.219c-8.3105,2.6284-18.6963,0.0195-18.8008-0.0078
	c-0.2061-0.0522-0.4775,0.1064-0.5938,0.2915c-0.4326,0.6914-1.1768,1.1333-1.9912,1.1831l-0.7568,0.0459l-0.0234-0.8135
	c-0.0264-0.8828,0.3984-1.6997,1.1357-2.186c0.0025-0.0016,0.0037-0.0044,0.0061-0.0061c0.0294-0.0202,0.0503-0.0483,0.0745-0.074
	c0.0209-0.0221,0.0464-0.0404,0.0626-0.0654c0.0119-0.0184,0.0157-0.0406,0.0251-0.0604c0.0179-0.038,0.0382-0.0749,0.0461-0.1159
	c0.004-0.0201-0.0008-0.0416,0.0006-0.0623c0.003-0.0443,0.007-0.0883-0.002-0.1323c-0.0005-0.0026,0.0004-0.0049-0.0001-0.0075
	c-3.1162-14.293-0.041-24.9028-0.0088-25.0083C30.71,21.9238,30.627,21.6958,30.4434,21.5747z"/>
<path class="st0" d="M32.7529,38.8682h18.666c0.2764,0,0.5-0.2236,0.5-0.5V30.874c0-0.2764-0.2236-0.5-0.5-0.5h-18.666
	c-0.2764,0-0.5,0.2236-0.5,0.5v7.4941C32.2529,38.6445,32.4766,38.8682,32.7529,38.8682z M33.2529,31.374h17.666v6.4941h-17.666
	V31.374z"/>
<path class="st0" d="M12.1895,52.2822l1.9971,1.2949c0.25,0.1616,0.5381,0.2422,0.8252,0.2422c0.2881,0,0.5762-0.0811,0.8281-0.2432
	l1.9951-1.2944c2.5723-1.6772,4.1084-4.5059,4.1084-7.5669v-6.4692c0-0.7217-0.5869-1.3086-1.3086-1.3086h-3.4033V17.5187
	c1.2994-0.7662,2.1826-2.1655,2.1826-3.7799v-3.0571c0-0.2764-0.2236-0.5-0.5-0.5h-7.8047c-0.2764,0-0.5,0.2236-0.5,0.5v3.0571
	c0,1.6144,0.8832,3.0136,2.1826,3.7798V36.937H9.3896c-0.7217,0-1.3086,0.5869-1.3086,1.3086v6.4692
	C8.0811,47.7764,9.6162,50.605,12.1895,52.2822z M11.6094,13.7388v-2.5571h6.8047v2.5571c0,1.876-1.5264,3.4023-3.4023,3.4023
	S11.6094,15.6147,11.6094,13.7388z M15.0117,18.1411c0.426,0,0.8298-0.08,1.2197-0.1934V36.937H13.792V17.9478
	C14.1819,18.0612,14.5857,18.1411,15.0117,18.1411z M9.0811,38.2456c0-0.1699,0.1387-0.3086,0.3086-0.3086h3.9023h3.4395h3.9033
	c0.1699,0,0.3086,0.1387,0.3086,0.3086v6.4692c0,2.7217-1.3662,5.2373-3.6543,6.7285l-1.9922,1.293
	c-0.1719,0.1104-0.3994,0.1094-0.5674,0.001l-1.9941-1.2935c-2.2881-1.4912-3.6543-4.0068-3.6543-6.729V38.2456z"/>
</svg>
