<?xml version="1.0" encoding="utf-8"?>
<!-- Generator: Adobe Illustrator 26.0.1, SVG Export Plug-In . SVG Version: 6.00 Build 0)  -->
<svg version="1.1" id="Layer_1" xmlns="http://www.w3.org/2000/svg" xmlns:xlink="http://www.w3.org/1999/xlink" x="0px" y="0px"
	 viewBox="0 0 64 64" style="enable-background:new 0 0 64 64;" xml:space="preserve">
<style type="text/css">
	.st0{fill:#43BBC4;}
</style>
<path class="st0" d="M42.4764,22.9057l2.9836-1.9536c0.1431-0.0938,0.2285-0.2539,0.2261-0.4248s-0.0918-0.3291-0.2373-0.4189
	l-13.186-8.1387c-0.1611-0.0996-0.3643-0.0996-0.5254,0l-13.186,8.1387c-0.1455,0.0898-0.2349,0.248-0.2373,0.4189
	s0.083,0.3311,0.2261,0.4248l2.9836,1.9536L4.1655,33.4336c-0.1475,0.0898-0.2383,0.249-0.2407,0.4209
	c-0.0024,0.1729,0.0845,0.334,0.2295,0.4277l27.5752,17.7432c0.0825,0.0527,0.1763,0.0791,0.2705,0.0791s0.188-0.0264,0.2705-0.0791
	l27.5752-17.7432c0.145-0.0938,0.2319-0.2549,0.2295-0.4277c-0.0024-0.1719-0.0933-0.3311-0.2407-0.4209L42.4764,22.9057z
	 M32,12.9834l12.2544,7.5635l-2.7253,1.7844l-1.0139-0.6144c-0.2354-0.1426-0.5439-0.0684-0.687,0.1689
	c-0.1431,0.2354-0.0674,0.543,0.1685,0.6865l0.6047,0.3665L32,28.5703l-8.6013-5.6316l0.6047-0.3665
	c0.2358-0.1436,0.3115-0.4512,0.1685-0.6865c-0.1431-0.2363-0.4497-0.3115-0.687-0.1689l-1.0139,0.6144l-2.7253-1.7844L32,12.9834z
	 M31.7261,29.5859c0.083,0.0547,0.1787,0.082,0.2739,0.082s0.1909-0.0273,0.2739-0.082l9.2748-6.0729l3.0816,1.869L32.0753,33.477
	l-12.7014-8.0975l3.0774-1.8665L31.7261,29.5859z M18.4203,25.9578l12.7299,8.1155l-12.7231,8.2032L5.3682,33.874L18.4203,25.9578z
	 M32,51.0098l-12.6497-8.1392l12.7274-8.2059l12.7211,8.11L32,51.0098z M45.7247,42.1788l-12.722-8.1106l12.5781-8.1097
	l13.051,7.9155L45.7247,42.1788z"/>
<path class="st0" d="M26.0688,21.2344c0.0884,0,0.1777-0.0234,0.2588-0.0723l2.3247-1.4092
	c0.2358-0.1436,0.3115-0.4512,0.1685-0.6865c-0.1436-0.2363-0.4497-0.3105-0.687-0.1689l-2.3247,1.4092
	c-0.2358,0.1436-0.3115,0.4512-0.1685,0.6865C25.7349,21.1484,25.8999,21.2344,26.0688,21.2344z"/>
<path class="st0" d="M30.9766,18.3428L32,17.7227l1.0234,0.6201c0.0811,0.0488,0.1704,0.0723,0.2588,0.0723
	c0.1689,0,0.334-0.0859,0.4282-0.2412c0.1431-0.2354,0.0674-0.543-0.1685-0.6865L32.2593,16.71
	c-0.1592-0.0957-0.3594-0.0957-0.5186,0l-1.2827,0.7773c-0.2358,0.1436-0.3115,0.4512-0.1685,0.6865
	C30.4336,18.4102,30.7407,18.4854,30.9766,18.3428z"/>
<path class="st0" d="M35.3477,19.7529l2.3247,1.4092c0.0811,0.0488,0.1704,0.0723,0.2588,0.0723
	c0.1689,0,0.334-0.0859,0.4282-0.2412c0.1431-0.2354,0.0674-0.543-0.1685-0.6865l-2.3247-1.4092
	c-0.2354-0.1426-0.5435-0.0674-0.687,0.1689C35.0361,19.3018,35.1118,19.6094,35.3477,19.7529z"/>
</svg>
