<?xml version="1.0" encoding="utf-8"?>
<!-- Generator: Adobe Illustrator 26.0.1, SVG Export Plug-In . SVG Version: 6.00 Build 0)  -->
<svg version="1.1" id="Layer_1" xmlns="http://www.w3.org/2000/svg" xmlns:xlink="http://www.w3.org/1999/xlink" x="0px" y="0px"
	 viewBox="0 0 64 64" style="enable-background:new 0 0 64 64;" xml:space="preserve">
<style type="text/css">
	.st0{fill:#43BBC4;}
</style>
<path class="st0" d="M27.8564,18.665l-0.6709,3.9106c-0.0581,0.3384,0.0786,0.6738,0.3564,0.876
	c0.2729,0.1987,0.6436,0.2241,0.9434,0.0679l3.5117-1.8462l3.5103,1.8457c0.1279,0.0679,0.2725,0.1035,0.418,0.1035
	c0.1904,0,0.3721-0.0586,0.5278-0.1714c0.2769-0.2026,0.4131-0.5376,0.355-0.8755l-0.6709-3.9106l2.8413-2.769
	c0.2456-0.2393,0.333-0.5908,0.2271-0.918v-0.0005c-0.106-0.3271-0.3833-0.5605-0.7231-0.6094l-3.9263-0.5708l-1.7559-3.5581
	c-0.3008-0.6108-1.3052-0.6108-1.606,0l-1.7568,3.5581l-3.9258,0.5703c-0.3398,0.0493-0.6172,0.2827-0.7231,0.6104
	c-0.106,0.3271-0.0186,0.6787,0.2266,0.9175L27.8564,18.665z M29.8413,14.749c0.1631-0.0234,0.3037-0.126,0.3765-0.2734
	l1.7793-3.6035l1.7788,3.6035c0.0728,0.1475,0.2134,0.25,0.3765,0.2734l3.9771,0.5781l-2.8784,2.8057
	c-0.1177,0.1147-0.1714,0.2803-0.1436,0.4424l0.6797,3.9609L32.23,20.666c-0.1465-0.0771-0.3193-0.0771-0.4658,0l-3.5576,1.8701
	l0.6797-3.9609c0.0278-0.1621-0.0259-0.3276-0.1436-0.4424l-2.8779-2.8057L29.8413,14.749z"/>
<path class="st0" d="M42.9932,24.5649l-0.4575,2.6636c-0.0493,0.2939,0.0693,0.585,0.3101,0.7598
	c0.2373,0.1729,0.5605,0.1958,0.8179,0.0586l2.3916-1.2568l2.3896,1.2563c0.1113,0.0586,0.2368,0.0898,0.3633,0.0898
	c0.1655,0,0.3237-0.0513,0.4565-0.1479c0.2407-0.1748,0.3594-0.4658,0.3096-0.7607l-0.457-2.6626l1.9351-1.8857
	c0.2129-0.207,0.2886-0.5122,0.1973-0.7954c-0.0005-0.0005-0.0005-0.001-0.0005-0.0015c-0.0923-0.2837-0.333-0.4863-0.6274-0.5288
	l-2.6738-0.3887l-1.1948-2.4209c-0.2607-0.5317-1.1318-0.5342-1.3945-0.0015l-1.1958,2.4224l-2.6733,0.3887
	c-0.2915,0.042-0.5381,0.2505-0.627,0.5283c-0.0913,0.2793-0.0146,0.5923,0.1958,0.7974L42.9932,24.5649z M44.5664,21.9165
	c0.1631-0.0234,0.3037-0.126,0.3765-0.2734l1.1123-2.2534l1.1123,2.2534c0.0728,0.1475,0.2134,0.25,0.3765,0.2734l2.4873,0.3613
	l-1.8003,1.7549c-0.1177,0.1147-0.1714,0.2803-0.1436,0.4424l0.4248,2.4771l-2.2246-1.1694c-0.1455-0.0771-0.3193-0.0771-0.4648,0
	l-2.2246,1.1694l0.4248-2.4771c0.0278-0.1621-0.0259-0.3276-0.1436-0.4424l-1.8003-1.7544L44.5664,21.9165z"/>
<path class="st0" d="M14.8765,24.5649l-0.4565,2.6616c-0.0503,0.2896,0.0713,0.5889,0.3091,0.7612
	c0.1333,0.0972,0.2915,0.1484,0.457,0.1484c0.1265,0,0.252-0.0312,0.3613-0.0894L17.939,26.79l2.3901,1.2563
	c0.2612,0.1387,0.5825,0.1157,0.8188-0.0581c0.2383-0.1729,0.3599-0.4722,0.3096-0.7607l-0.4565-2.6621l1.936-1.8872
	c0.2095-0.2056,0.2861-0.5181,0.1958-0.7935c-0.0898-0.2808-0.3364-0.4893-0.6279-0.5312l-2.6733-0.3887l-1.1958-2.4229
	c-0.2656-0.5361-1.1343-0.5327-1.3936,0.0005l-1.1963,2.4224l-2.6733,0.3887c-0.2944,0.0425-0.5352,0.2451-0.6274,0.5288
	c-0.0908,0.2793-0.0137,0.5918,0.1968,0.7969L14.8765,24.5649z M16.4497,21.9165c0.1631-0.0234,0.3037-0.126,0.3765-0.2734
	l1.1128-2.2534l1.1123,2.2534c0.0728,0.1475,0.2134,0.25,0.3765,0.2734l2.4873,0.3618l-1.8003,1.7544
	c-0.1177,0.1147-0.1714,0.2803-0.1436,0.4424l0.4248,2.4766l-2.2246-1.1689c-0.1455-0.0771-0.3193-0.0771-0.4648,0l-2.2251,1.1694
	l0.4248-2.4771c0.0278-0.1621-0.0259-0.3276-0.1436-0.4424l-1.7998-1.7549L16.4497,21.9165z"/>
<path class="st0" d="M9.293,54.2598h16.332c0.0052,0,0.0094-0.0027,0.0145-0.0029h12.7078
	c0.0051,0.0002,0.0093,0.0029,0.0145,0.0029h16.3447c0.4746,0,0.9277-0.2051,1.2427-0.563
	c0.3101-0.3525,0.4546-0.8198,0.3955-1.2817c-0.5458-4.2522-3.6649-7.6326-7.6757-8.6782c0.5323-0.272,1.0372-0.6052,1.475-1.043
	c1.3179-1.3179,1.9097-3.1411,1.6235-5.0024c-0.3774-2.4507-2.3521-4.4243-4.8022-4.7998c-1.8608-0.2817-3.6812,0.3071-4.998,1.6235
	s-1.9092,3.1387-1.625,4.999c0.2802,1.8339,1.4561,3.4005,3.0571,4.2317c-0.7136,0.1904-1.4014,0.4709-2.0624,0.8104
	c-1.7131-1.7375-3.9077-2.9916-6.3632-3.5628c0.7889-0.3544,1.5203-0.845,2.1507-1.4754c1.7671-1.7666,2.4922-4.3032,1.9409-6.7852
	c-0.5986-2.6919-2.7246-4.8169-5.416-5.4136c-2.4795-0.5483-5.0132,0.1758-6.7793,1.9404
	c-1.7656,1.7651-2.4917,4.2998-1.9429,6.7803c0.4852,2.1922,2.0635,4.0447,4.0909,4.959c-2.4521,0.575-4.6428,1.8312-6.3524,3.5696
	c-0.6615-0.3449-1.3518-0.6301-2.071-0.8227c1.601-0.8312,2.7769-2.3978,3.0571-4.2319c0.2842-1.8608-0.3086-3.6826-1.6255-4.9995
	c-1.3174-1.3164-3.1401-1.9072-4.998-1.623c-2.4507,0.3755-4.4253,2.3496-4.8018,4.7998c-0.2861,1.8613,0.3057,3.6846,1.6235,5.0024
	c0.4378,0.4378,0.9426,0.7711,1.4748,1.043c-4.0015,1.0455-7.1209,4.4254-7.6696,8.6772c-0.0591,0.4624,0.085,0.9297,0.395,1.2827
	C8.3652,54.0547,8.8184,54.2598,9.293,54.2598z M41.3306,39.3628c-0.2354-1.542,0.2544-3.0513,1.3438-4.1406
	c0.9097-0.9092,2.1113-1.4004,3.3809-1.4004c0.2505,0,0.5044,0.019,0.7588,0.0581c2.0229,0.3101,3.6538,1.9399,3.9653,3.9639
	c0.2373,1.5425-0.252,3.0527-1.3423,4.1431c-1.0903,1.0898-2.6011,1.5791-4.1431,1.3428
	C43.2695,43.0181,41.6396,41.3867,41.3306,39.3628z M46.0635,44.3945c4.6992,0,8.6929,3.5029,9.2891,8.1475
	c0.0229,0.1797-0.0317,0.355-0.1543,0.4941c-0.125,0.1421-0.3042,0.2236-0.4917,0.2236h-9.6121
	c-0.1137-3.0134-1.2372-5.7703-3.0568-7.9326C43.2936,44.7271,44.665,44.3945,46.0635,44.3945z M25.9038,35.8242
	c-0.4751-2.1455,0.1509-4.335,1.6733-5.8574c1.1865-1.186,2.7783-1.8271,4.438-1.8271c0.4697,0,0.9448,0.0513,1.4175,0.1562
	c2.2788,0.5049,4.1499,2.3755,4.6562,4.6538c0.4771,2.1465-0.1475,4.3374-1.6714,5.8613c-1.5244,1.5229-3.7173,2.1465-5.8604,1.6704
	C28.2783,39.9756,26.4082,38.1035,25.9038,35.8242z M32.0068,41.6421c6.5112,0,11.8394,5.1655,12.1025,11.6147H19.9048
	C20.168,46.8076,25.4956,41.6421,32.0068,41.6421z M13.2148,37.8438c0.311-2.0239,1.9414-3.6538,3.9648-3.9639
	c1.5425-0.2339,3.0503,0.2534,4.1396,1.3423c1.0898,1.0889,1.5796,2.5986,1.3442,4.1406c-0.3091,2.0239-1.939,3.6553-3.9629,3.9668
	c-1.5415,0.2344-3.0532-0.2524-4.1436-1.3428S12.9775,39.3862,13.2148,37.8438z M17.937,44.3945
	c1.4025,0,2.778,0.3364,4.0296,0.9434c-1.814,2.1606-2.9334,4.9136-3.0469,7.9218H9.293c-0.1875,0-0.3667-0.0815-0.4917-0.2236
	C8.6787,52.897,8.624,52.7212,8.6475,52.542C9.2466,47.897,13.2402,44.3945,17.937,44.3945z"/>
</svg>
