<?xml version="1.0" encoding="utf-8"?>
<!-- Generator: Adobe Illustrator 26.0.1, SVG Export Plug-In . SVG Version: 6.00 Build 0)  -->
<svg version="1.1" id="Layer_1" xmlns="http://www.w3.org/2000/svg" xmlns:xlink="http://www.w3.org/1999/xlink" x="0px" y="0px"
	 viewBox="0 0 64 64" style="enable-background:new 0 0 64 64;" xml:space="preserve">
<style type="text/css">
	.st0{fill:#43BBC4;}
</style>
<path class="st0" d="M10.6172,26.8501c0.0654,0.123,0.1787,0.2129,0.3135,0.2485c0.1328,0.0356,0.2764,0.0132,0.3955-0.061
	l0.6914-0.438v27.8653c0,0.2764,0.2236,0.5,0.5,0.5h38.9648c0.2764,0,0.5-0.2236,0.5-0.5V26.5995l0.6914,0.438
	c0.0811,0.0513,0.1738,0.0776,0.2676,0.0776c0.043,0,0.0859-0.0054,0.1279-0.0166c0.1348-0.0356,0.248-0.1255,0.3135-0.2485
	l1.6387-3.0796c0.124-0.2324,0.0459-0.521-0.1777-0.6597L32.2637,9.1104c-0.1621-0.1006-0.3652-0.1006-0.5273,0L9.1562,23.1108
	c-0.2236,0.1387-0.3018,0.4272-0.1777,0.6597L10.6172,26.8501z M19.7285,47.583v2.3789h-3.626V47.583H19.7285z M21.4961,44.3604
	v2.2227h-3.7305v-2.2227H21.4961z M26.0703,44.3604v2.2227h-3.5742v-2.2227H26.0703z M33.6084,47.583v2.3789h-3.627V47.583H33.6084z
	 M21.4961,50.9619v3.0029h-3.7305v-3.0029H21.4961z M24.3555,47.583v2.3789h-3.627V47.583H24.3555z M22.4961,50.9619h3.7305v3.0029
	h-3.7305V50.9619z M27.2266,50.9619h3.7305v3.0029h-3.7305V50.9619z M31.957,50.9619h3.7305v3.0029H31.957V50.9619z
	 M28.9814,49.9619h-3.626V47.583h3.626V49.9619z M15.1025,49.9619h-2.085V47.583h2.085V49.9619z M13.0176,35.4199h2.501v3.9121
	h-2.501V35.4199z M15.5186,34.4199h-2.501v-3.9126h2.501V34.4199z M13.0176,50.9619h3.748v3.0029h-3.748V50.9619z M48.7988,53.9648
	v-5.29h2.1836v5.29H48.7988z M50.9824,47.6748h-2.1836v-8.7529c0-0.2764-0.2236-0.5-0.5-0.5h-9.3564c-0.2764,0-0.5,0.2236-0.5,0.5
	v5.7188c0,0.2764,0.2236,0.5,0.5,0.5s0.5-0.2236,0.5-0.5v-5.2188h8.3564v8.2529h-1.9424c-0.2764,0-0.5,0.2236-0.5,0.5
	s0.2236,0.5,0.5,0.5h1.9424v5.29H36.6875v-3.0029h2.6191c0.2764,0,0.5-0.2236,0.5-0.5s-0.2236-0.5-0.5-0.5h-4.6982V47.583h4.6982
	c0.2764,0,0.5-0.2236,0.5-0.5s-0.2236-0.5-0.5-0.5H27.0703v-2.7227c0-0.2764-0.2236-0.5-0.5-0.5H15.6025
	c-0.2764,0-0.5,0.2236-0.5,0.5s0.2236,0.5,0.5,0.5h1.1631v2.2227h-3.748v-6.251h3.001c0.2764,0,0.5-0.2236,0.5-0.5v-9.8247
	c0-0.2764-0.2236-0.5-0.5-0.5h-3.001v-3.5414L14.5422,25h13.533h7.8496h13.533l1.5246,0.9659V47.6748z M28.5752,24v-1.8213H31.5V24
	H28.5752z M35.4248,19.3574v1.8213H32.5v-1.8213H35.4248z M31.5,21.1787h-2.9248v-1.8213H31.5V21.1787z M32.5,22.1787h2.9248V24
	H32.5V22.1787z M36.4248,18.8574c0-0.2764-0.2236-0.5-0.5-0.5h-7.8496c-0.2764,0-0.5,0.2236-0.5,0.5V24H16.1205L32,13.939
	L47.8795,24H36.4248V18.8574z M32,10.1235l21.9189,13.5903l-1.166,2.1904L32.2676,12.9248
	c-0.082-0.0518-0.1748-0.0776-0.2676-0.0776s-0.1855,0.0259-0.2676,0.0776L11.2471,25.9043l-1.166-2.1904L32,10.1235z"/>
</svg>
