<?xml version="1.0" encoding="UTF-8" standalone="no"?>
<!DOCTYPE svg PUBLIC "-//W3C//DTD SVG 1.1//EN" "http://www.w3.org/Graphics/SVG/1.1/DTD/svg11.dtd">
<svg width="100%" height="100%" viewBox="0 0 65 65" version="1.1" xmlns="http://www.w3.org/2000/svg" xmlns:xlink="http://www.w3.org/1999/xlink" xml:space="preserve" xmlns:serif="http://www.serif.com/" style="fill-rule:evenodd;clip-rule:evenodd;stroke-linejoin:round;stroke-miterlimit:2;">
    <g transform="matrix(1,0,0,1,-146,-79)">
        <g transform="matrix(0.0625,0,0,0.0833333,146.422,79.8764)">
            <rect id="ico_flooring" x="0" y="0" width="1024" height="768" style="fill:none;"/>
            <g id="ico_flooring1" serif:id="ico_flooring">
                <g id="ico_flooring.svg" transform="matrix(16,0,0,12,512,384)">
                    <g transform="matrix(1,0,0,1,-32,-32)">
                        <g>
                            <path d="M42.476,22.906L45.46,20.952C45.603,20.858 45.689,20.698 45.686,20.527C45.684,20.356 45.594,20.198 45.449,20.108L32.263,11.97C32.102,11.87 31.899,11.87 31.737,11.97L18.551,20.108C18.406,20.198 18.317,20.356 18.314,20.527C18.312,20.698 18.397,20.858 18.54,20.952L21.524,22.906L4.166,33.434C4.018,33.523 3.927,33.683 3.925,33.855C3.922,34.027 4.009,34.189 4.154,34.282L31.729,52.025C31.812,52.078 31.906,52.105 32,52.105C32.094,52.105 32.188,52.078 32.27,52.025L59.846,34.282C59.991,34.188 60.078,34.027 60.075,33.855C60.073,33.683 59.982,33.523 59.835,33.434L42.476,22.906ZM32,12.983L44.254,20.547L41.529,22.331L40.515,21.717C40.28,21.574 39.971,21.649 39.828,21.886C39.685,22.121 39.761,22.429 39.997,22.572L40.601,22.939L32,28.57L23.399,22.939L24.003,22.572C24.239,22.429 24.315,22.121 24.172,21.886C24.029,21.649 23.722,21.574 23.485,21.717L22.471,22.331L19.746,20.547L32,12.983ZM31.726,29.586C31.809,29.641 31.905,29.668 32,29.668C32.095,29.668 32.191,29.641 32.274,29.586L41.549,23.513L44.63,25.382L32.075,33.477L19.374,25.379L22.451,23.513L31.726,29.586ZM18.42,25.958L31.15,34.073L18.427,42.277L5.368,33.874L18.42,25.958ZM32,51.01L19.35,42.871L32.078,34.665L44.799,42.775L32,51.01ZM45.725,42.179L33.003,34.068L45.581,25.959L58.632,33.874L45.725,42.179Z" style="fill:rgb(26,91,87);fill-rule:nonzero;"/>
                            <path d="M26.069,21.234C26.157,21.234 26.247,21.211 26.328,21.162L28.652,19.753C28.888,19.609 28.964,19.302 28.821,19.066C28.677,18.83 28.371,18.756 28.134,18.898L25.809,20.307C25.573,20.45 25.498,20.758 25.641,20.993C25.735,21.148 25.9,21.234 26.069,21.234Z" style="fill:rgb(26,91,87);fill-rule:nonzero;"/>
                            <path d="M30.977,18.343L32,17.723L33.023,18.343C33.105,18.392 33.194,18.415 33.282,18.415C33.451,18.415 33.616,18.329 33.71,18.174C33.853,17.939 33.778,17.631 33.542,17.487L32.259,16.71C32.1,16.614 31.9,16.614 31.741,16.71L30.458,17.487C30.222,17.631 30.147,17.939 30.29,18.174C30.434,18.41 30.741,18.485 30.977,18.343Z" style="fill:rgb(26,91,87);fill-rule:nonzero;"/>
                            <path d="M35.348,19.753L37.672,21.162C37.754,21.211 37.843,21.234 37.931,21.234C38.1,21.234 38.265,21.148 38.359,20.993C38.503,20.758 38.427,20.45 38.191,20.307L35.866,18.898C35.631,18.755 35.323,18.83 35.179,19.066C35.036,19.302 35.112,19.609 35.348,19.753Z" style="fill:rgb(26,91,87);fill-rule:nonzero;"/>
                        </g>
                    </g>
                </g>
            </g>
        </g>
    </g>
</svg>
