<?xml version="1.0" encoding="UTF-8" standalone="no"?>
<!DOCTYPE svg PUBLIC "-//W3C//DTD SVG 1.1//EN" "http://www.w3.org/Graphics/SVG/1.1/DTD/svg11.dtd">
<svg width="100%" height="100%" viewBox="0 0 65 65" version="1.1" xmlns="http://www.w3.org/2000/svg" xmlns:xlink="http://www.w3.org/1999/xlink" xml:space="preserve" xmlns:serif="http://www.serif.com/" style="fill-rule:evenodd;clip-rule:evenodd;stroke-linejoin:round;stroke-miterlimit:2;">
    <g transform="matrix(1,0,0,1,-73,-244)">
        <g transform="matrix(0.0625,0,0,0.0833333,73.113,244.05)">
            <rect id="ico_extension" x="0" y="0" width="1024" height="768" style="fill:none;"/>
            <g id="ico_extension1" serif:id="ico_extension">
                <g id="ico_extension.svg" transform="matrix(16,0,0,12,512,384)">
                    <g transform="matrix(1,0,0,1,-32,-32)">
                        <g>
                            <g>
                                <g transform="matrix(0.3784,-0.9257,0.9257,0.3784,11.1677,72.6368)">
                                    <rect x="59.165" y="27.504" width="1" height="1" style="fill:rgb(26,91,87);"/>
                                </g>
                                <g transform="matrix(0.3785,-0.9256,0.9256,0.3785,10.4085,68.9822)">
                                    <rect x="56.074" y="25.794" width="1" height="1.892" style="fill:rgb(26,91,87);"/>
                                </g>
                                <g transform="matrix(0.3788,-0.9255,0.9255,0.3788,8.6961,60.706)">
                                    <rect x="49.068" y="22.929" width="1" height="1.893" style="fill:rgb(26,91,87);"/>
                                </g>
                                <g transform="matrix(0.3788,-0.9255,0.9255,0.3788,6.9948,52.4419)">
                                    <rect x="42.061" y="20.064" width="1" height="1.892" style="fill:rgb(26,91,87);"/>
                                </g>
                                <g transform="matrix(0.3788,-0.9255,0.9255,0.3788,7.8453,56.5742)">
                                    <rect x="45.565" y="21.497" width="1" height="1.892" style="fill:rgb(26,91,87);"/>
                                </g>
                                <g transform="matrix(0.3785,-0.9256,0.9256,0.3785,6.1543,48.3219)">
                                    <rect x="38.558" y="18.632" width="1" height="1.893" style="fill:rgb(26,91,87);"/>
                                </g>
                                <g transform="matrix(0.3785,-0.9256,0.9256,0.3785,5.3005,44.1859)">
                                    <rect x="35.055" y="17.2" width="1" height="1.892" style="fill:rgb(26,91,87);"/>
                                </g>
                                <g transform="matrix(0.3785,-0.9256,0.9256,0.3785,9.5569,64.8495)">
                                    <rect x="52.571" y="24.362" width="1" height="1.892" style="fill:rgb(26,91,87);"/>
                                </g>
                                <rect x="57.36" y="28.511" width="1" height="1" style="fill:rgb(26,91,87);"/>
                                <path d="M32,21.933C30.442,21.933 29.175,23.2 29.175,24.758C29.175,26.315 30.442,27.582 32,27.582C33.558,27.582 34.825,26.315 34.825,24.758C34.825,23.2 33.558,21.933 32,21.933ZM32,26.582C30.994,26.582 30.175,25.764 30.175,24.758C30.175,23.752 30.994,22.933 32,22.933C33.006,22.933 33.825,23.752 33.825,24.758C33.825,25.764 33.006,26.582 32,26.582Z" style="fill:rgb(26,91,87);fill-rule:nonzero;"/>
                                <path d="M62.717,36.188L61.274,36.188L61.274,34.676C61.274,32.878 60.029,31.377 58.36,30.957L58.36,30.405L57.36,30.405L57.36,30.836C55.265,30.873 53.57,32.578 53.57,34.676L53.57,36.188L49.946,36.188C49.669,36.188 49.446,36.411 49.446,36.688L49.446,42.611L35.827,42.611L35.827,36.137C35.827,34.026 34.11,32.31 32,32.31C29.89,32.31 28.173,34.026 28.173,36.137L28.173,42.611L14.554,42.611L14.554,36.688C14.554,36.411 14.331,36.188 14.054,36.188L10.43,36.188L10.43,34.676C10.43,32.578 8.735,30.873 6.64,30.836L6.64,27.603L32.002,17.233L32.738,17.535L33.117,16.609L32.196,16.232C32.195,16.232 32.191,16.23 32.191,16.23L32.191,16.231C32.074,16.182 31.939,16.178 31.813,16.23L3.687,27.73C3.432,27.835 3.309,28.127 3.414,28.382C3.493,28.576 3.68,28.693 3.876,28.693C3.939,28.693 4.004,28.681 4.066,28.656L5.64,28.012L5.64,30.957C3.971,31.376 2.727,32.878 2.727,34.676L2.727,36.187L1.283,36.187C1.006,36.187 0.783,36.411 0.783,36.687L0.783,47.307C0.783,47.583 1.006,47.807 1.283,47.807L62.717,47.807C62.994,47.807 63.217,47.583 63.217,47.307L63.217,36.687C63.217,36.411 62.994,36.188 62.717,36.188ZM54.57,34.676C54.57,33.107 55.852,31.829 57.427,31.829C58.996,31.829 60.273,33.106 60.273,34.676L60.273,36.188L54.57,36.188L54.57,34.676ZM50.446,37.188L62.217,37.188L62.217,42.611L50.446,42.611L50.446,37.188ZM29.173,36.137C29.173,34.578 30.441,33.31 32,33.31C33.559,33.31 34.827,34.578 34.827,36.137L34.827,42.611L29.173,42.611L29.173,36.137L29.173,36.137ZM3.727,34.676C3.727,33.107 5.004,31.829 6.573,31.829C8.149,31.829 9.43,33.106 9.43,34.676L9.43,36.188L3.727,36.188L3.727,34.676ZM13.554,37.188L13.554,42.611L1.783,42.611L1.783,37.188L13.554,37.188ZM62.217,46.807L1.783,46.807L1.783,43.611L62.217,43.611L62.217,46.807L62.217,46.807Z" style="fill:rgb(26,91,87);fill-rule:nonzero;"/>
                                <path d="M17.109,30.912C16.833,30.912 16.609,31.136 16.609,31.412L16.609,36.606C16.609,36.882 16.833,37.106 17.109,37.106L25.815,37.106C26.092,37.106 26.315,36.882 26.315,36.606L26.315,31.412C26.315,31.136 26.092,30.912 25.815,30.912L17.109,30.912ZM25.315,36.106L17.609,36.106L17.609,31.912L25.315,31.912L25.315,36.106Z" style="fill:rgb(26,91,87);fill-rule:nonzero;"/>
                                <path d="M37.685,31.412L37.685,36.606C37.685,36.882 37.908,37.106 38.185,37.106L46.891,37.106C47.168,37.106 47.391,36.882 47.391,36.606L47.391,31.412C47.391,31.136 47.168,30.912 46.891,30.912L38.185,30.912C37.908,30.912 37.685,31.136 37.685,31.412ZM38.685,31.912L46.391,31.912L46.391,36.106L38.685,36.106L38.685,31.912Z" style="fill:rgb(26,91,87);fill-rule:nonzero;"/>
                            </g>
                        </g>
                    </g>
                </g>
            </g>
        </g>
    </g>
</svg>
