<?xml version="1.0" encoding="UTF-8" standalone="no"?>
<!DOCTYPE svg PUBLIC "-//W3C//DTD SVG 1.1//EN" "http://www.w3.org/Graphics/SVG/1.1/DTD/svg11.dtd">
<svg width="100%" height="100%" viewBox="0 0 65 64" version="1.1" xmlns="http://www.w3.org/2000/svg" xmlns:xlink="http://www.w3.org/1999/xlink" xml:space="preserve" xmlns:serif="http://www.serif.com/" style="fill-rule:evenodd;clip-rule:evenodd;stroke-linejoin:round;stroke-miterlimit:2;">
    <g transform="matrix(1,0,0,1,-289,0)">
        <g transform="matrix(0.0625,0,0,0.0833333,289.323,0)">
            <rect id="ico_repointing" x="0" y="0" width="1024" height="768" style="fill:none;"/>
            <g id="ico_repointing1" serif:id="ico_repointing">
                <g id="ico_repointing.svg" transform="matrix(16,0,0,12,512,384)">
                    <g transform="matrix(1,0,0,1,-32,-32)">
                        <path d="M48.922,14.552L15.078,14.552C15.027,14.552 14.981,14.567 14.935,14.581C14.918,14.586 14.899,14.584 14.883,14.591C14.856,14.603 14.836,14.624 14.811,14.64C14.674,14.729 14.578,14.876 14.578,15.052L14.578,48.896C14.578,49.172 14.802,49.396 15.078,49.396L48.922,49.396C48.922,49.396 48.922,49.396 48.922,49.396C48.948,49.396 48.975,49.393 49.002,49.389C49.021,49.386 49.036,49.374 49.055,49.369C49.089,49.359 49.122,49.349 49.152,49.332C49.18,49.318 49.203,49.301 49.227,49.282C49.253,49.261 49.277,49.24 49.299,49.215C49.319,49.191 49.335,49.165 49.35,49.138C49.366,49.11 49.38,49.082 49.39,49.051C49.401,49.02 49.406,48.988 49.41,48.954C49.413,48.934 49.422,48.916 49.422,48.895L49.422,15.052C49.422,14.775 49.198,14.552 48.922,14.552ZM42.106,41.035L48.422,41.035L48.422,46.577C47.474,45.091 45.628,43.053 42.106,41.035ZM48.422,21.851L48.422,27.242L45.366,27.242L45.366,21.851L48.422,21.851ZM44.861,28.242C44.863,28.242 44.864,28.243 44.866,28.243C44.867,28.243 44.869,28.242 44.871,28.242L48.422,28.242L48.422,33.633L41.179,33.633L41.179,28.242L44.861,28.242ZM48.422,34.633L48.422,40.035L45.366,40.035L45.366,34.633L48.422,34.633ZM44.366,27.242L36.905,27.242L36.905,21.851L44.366,21.851L44.366,27.242ZM36.41,20.851C36.408,20.851 36.406,20.85 36.405,20.85C36.403,20.85 36.402,20.851 36.4,20.851L32.5,20.851L32.5,15.552L40.179,15.552L40.179,20.851L36.41,20.851ZM35.905,21.851L35.905,27.242L31.547,27.242C31.498,26.997 31.451,26.772 31.4,26.514C31.044,24.697 30.415,23.158 29.607,21.851L35.905,21.851ZM36.4,28.242C36.402,28.242 36.403,28.243 36.405,28.243C36.407,28.243 36.408,28.242 36.41,28.242L40.179,28.242L40.179,33.633L33.18,33.633C32.679,32.301 32.238,30.588 31.749,28.242L36.4,28.242ZM40.655,34.633C40.663,34.633 40.67,34.638 40.679,34.638C40.687,34.638 40.694,34.633 40.703,34.633L44.366,34.633L44.366,40.035L40.262,40.035L39.909,39.85C36.5,38.069 34.823,37.177 33.606,34.633L40.655,34.633ZM48.422,20.851L44.871,20.851C44.869,20.851 44.868,20.85 44.866,20.85C44.864,20.85 44.863,20.851 44.861,20.851L41.179,20.851L41.179,15.552L48.422,15.552L48.422,20.851ZM31.5,15.552L31.5,20.851L28.917,20.851C26.727,17.963 23.614,16.398 20.892,15.552L31.5,15.552ZM15.578,15.567C17.512,15.66 24.434,16.358 28.219,21.544C28.245,21.607 28.285,21.663 28.333,21.709C29.284,23.058 30.026,24.7 30.419,26.705C32.452,37.082 33.657,37.711 39.446,40.736L40.794,41.443C46.107,44.26 47.757,47.187 48.239,48.395L15.578,48.395L15.578,15.567Z" style="fill:rgb(26,91,87);fill-rule:nonzero;"/>
                    </g>
                </g>
            </g>
        </g>
    </g>
</svg>
