<?xml version="1.0" encoding="utf-8"?>
<!-- Generator: Adobe Illustrator 26.0.1, SVG Export Plug-In . SVG Version: 6.00 Build 0)  -->
<svg version="1.1" id="Layer_1" xmlns="http://www.w3.org/2000/svg" xmlns:xlink="http://www.w3.org/1999/xlink" x="0px" y="0px"
	 viewBox="0 0 64 64" style="enable-background:new 0 0 64 64;" xml:space="preserve">
<style type="text/css">
	.st0{fill:#43BBC4;}
</style>
<path class="st0" d="M48.9219,14.5518H15.0781h-0.0001c-0.0001,0-0.0004,0-0.0004,0c-0.0506,0-0.0966,0.0148-0.1426,0.0288
	c-0.0167,0.0051-0.0358,0.0038-0.0517,0.0105c-0.0271,0.0115-0.0476,0.0327-0.072,0.0485
	c-0.1372,0.0891-0.2332,0.2362-0.2332,0.4122v33.8438c0,0.2764,0.2236,0.5,0.5,0.5h33.8438c0.0001,0,0.0002-0.0001,0.0004-0.0001
	c0.0261,0,0.0527-0.002,0.0792-0.0068c0.0195-0.0031,0.0346-0.0146,0.0532-0.0199c0.0344-0.0097,0.0668-0.0203,0.0978-0.0367
	c0.0273-0.0144,0.0509-0.0314,0.0747-0.0504c0.0262-0.0207,0.05-0.0415,0.0716-0.067c0.0203-0.0239,0.036-0.0492,0.0515-0.0765
	c0.016-0.0281,0.0298-0.0557,0.0402-0.0869c0.0106-0.0316,0.0156-0.0637,0.0197-0.0974c0.0024-0.0201,0.0118-0.0378,0.0118-0.0585
	V15.0518C49.4219,14.7754,49.1982,14.5518,48.9219,14.5518z M42.1059,41.0352h6.316v5.5419
	C47.4744,45.091,45.6281,43.0527,42.1059,41.0352z M48.4219,21.8506v5.3916h-3.0562v-5.3916H48.4219z M44.8609,28.2422
	c0.0017,0,0.0031,0.001,0.0048,0.001s0.0031-0.001,0.0048-0.001h3.5513v5.3906h-7.2432v-5.3906H44.8609z M48.4219,34.6328v5.4023
	h-3.0562v-5.4023H48.4219z M44.3657,27.2422h-7.4609v-5.3916h7.4609V27.2422z M36.4096,20.8506c-0.0017,0-0.0031-0.001-0.0048-0.001
	s-0.0031,0.001-0.0048,0.001h-3.9v-5.2988h7.6787v5.2988H36.4096z M35.9048,21.8506v5.3916h-4.3575
	c-0.0492-0.2452-0.0964-0.4707-0.1469-0.7285c-0.356-1.8172-0.9857-3.356-1.7939-4.6631H35.9048z M36.4,28.2422
	c0.0017,0,0.0031,0.001,0.0048,0.001s0.0031-0.001,0.0048-0.001h3.7691v5.3906h-6.9984c-0.501-1.3314-0.9423-3.0449-1.4313-5.3906
	H36.4z M40.6545,34.6328c0.0085,0.0004,0.0156,0.0049,0.0242,0.0049s0.0157-0.0045,0.0242-0.0049h3.6628v5.4023h-4.1034
	l-0.3531-0.1855c-3.4089-1.781-5.0867-2.6727-6.3037-5.2168H40.6545z M48.4219,20.8506h-3.5513c-0.0017,0-0.0031-0.001-0.0048-0.001
	s-0.0031,0.001-0.0048,0.001h-3.6822v-5.2988h7.2432V20.8506z M31.5,15.5518v5.2988h-2.583
	c-2.1904-2.8874-5.303-4.4528-8.0251-5.2988H31.5z M15.5781,15.5665c1.9341,0.093,8.8562,0.7916,12.6406,5.9777
	c0.0264,0.063,0.0663,0.1183,0.1147,0.165c0.9503,1.3492,1.6926,2.9903,2.0856,4.9959c2.0332,10.377,3.2378,11.0059,9.0269,14.0312
	l1.3477,0.707c5.3131,2.8167,6.9637,5.7432,7.4457,6.9521H15.5781V15.5665z"/>
</svg>
