<?xml version="1.0" encoding="utf-8"?>
<!-- Generator: Adobe Illustrator 26.0.1, SVG Export Plug-In . SVG Version: 6.00 Build 0)  -->
<svg version="1.1" id="Layer_1" xmlns="http://www.w3.org/2000/svg" xmlns:xlink="http://www.w3.org/1999/xlink" x="0px" y="0px"
	 viewBox="0 0 64 64" style="enable-background:new 0 0 64 64;" xml:space="preserve">
<style type="text/css">
	.st0{fill:#43BBC4;}
</style>
<path class="st0" d="M13.1846,47c0.8652,1.0645,2.1475,1.6753,3.5186,1.6753h33.2031c1.0605,0,1.9229-0.8628,1.9229-1.9233V20.4414
	c0-1.0605-0.8623-1.9233-1.9229-1.9233h-28.895c-0.5753-1.8431-2.2776-3.1934-4.3082-3.1934c-2.499,0-4.5322,2.0332-4.5322,4.5327
	v24.2852c0,0.0065,0.0034,0.0118,0.0037,0.0182C12.1801,45.1933,12.5278,46.192,13.1846,47z M49.9062,19.5181
	c0.5088,0,0.9229,0.4141,0.9229,0.9233V46.752c0,0.5093-0.4141,0.9233-0.9229,0.9233H16.7031c-1.0684,0-2.0674-0.4761-2.7422-1.3062
	c-0.6748-0.8296-0.9336-1.9204-0.71-2.9922c0.2773-1.3301,1.3564-2.4097,2.6875-2.687c1.0703-0.2227,2.1621,0.0352,2.9922,0.71
	s1.3057,1.6743,1.3057,2.7427c0,0.2764,0.2236,0.5,0.5,0.5s0.5-0.2236,0.5-0.5V19.8574c0-0.1162-0.0257-0.2253-0.0343-0.3394
	H49.9062z M16.7031,16.3247c1.9482,0,3.5332,1.585,3.5332,3.5327v21.4478c-0.1989-0.247-0.423-0.4766-0.6748-0.6812
	c-1.0654-0.8657-2.4629-1.1987-3.8271-0.9131c-1.0212,0.2127-1.9219,0.7978-2.5635,1.5944V19.8574
	C13.1709,17.9097,14.7559,16.3247,16.7031,16.3247z"/>
<path class="st0" d="M46.1328,28.6558c0-1.0605-0.8623-1.9233-1.9229-1.9233h-4.13c-0.0051-0.0002-0.0093-0.0029-0.0145-0.0029
	s-0.0094,0.0027-0.0145,0.0029h-9.0538c-1.0605,0-1.9238,0.8628-1.9238,1.9233v12.729c0,1.0601,0.8633,1.9229,1.9238,1.9229h6.5944
	c0.0043,0.0001,0.0078,0.0024,0.0121,0.0024h6.6094c1.0605,0,1.9238-0.8628,1.9238-1.9229v-3.6626
	c0-0.0069-0.0036-0.0126-0.0039-0.0194V28.6558z M44.2129,42.3101h-6.5944c-0.0043-0.0001-0.0078-0.0024-0.0121-0.0024h-6.6094
	c-0.5176,0-0.9238-0.4053-0.9238-0.9229V31.75h4.417c0.2764,0,0.5-0.2236,0.5-0.5v-2.0103c0-0.2764-0.2236-0.5-0.5-0.5
	s-0.5,0.2236-0.5,0.5V30.75h-3.917v-2.0942c0-0.5176,0.4062-0.9233,0.9238-0.9233h8.5684v5.0679c0,0.2764,0.2236,0.5,0.5,0.5
	s0.5-0.2236,0.5-0.5v-5.0679H44.21c0.5176,0,0.9229,0.4058,0.9229,0.9233v8.8921h-4.5674v-1.9824c0-0.2764-0.2236-0.5-0.5-0.5
	s-0.5,0.2236-0.5,0.5v1.9824H32.877c-0.2764,0-0.5,0.2236-0.5,0.5s0.2236,0.5,0.5,0.5h4.2266v2.2998c0,0.2764,0.2236,0.5,0.5,0.5
	s0.5-0.2236,0.5-0.5v-2.2998h7.0332v2.8394C45.1367,41.896,44.7227,42.3101,44.2129,42.3101z"/>
<path class="st0" d="M29.0997,23.7112c0.0034,0.0117-0.0024,0.0237,0.0018,0.0353c0.0024,0.0063,0.0092,0.009,0.0118,0.0151
	c0.0288,0.0696,0.0689,0.1352,0.1298,0.188l1.334,1.1562c0.0947,0.082,0.2109,0.1221,0.3271,0.1221
	c0.1396,0,0.2793-0.0586,0.3779-0.1724c0.1807-0.209,0.1582-0.5244-0.0508-0.7056l-0.3211-0.2783h4.2313h4.9238h4.2305
	l-0.3214,0.2783c-0.209,0.1807-0.2314,0.4966-0.0508,0.7051c0.0986,0.1143,0.2383,0.1729,0.3779,0.1729
	c0.1162,0,0.2324-0.04,0.3271-0.1221l1.335-1.1562c0.061-0.0527,0.1011-0.1183,0.1299-0.1881
	c0.0026-0.0061,0.0094-0.0088,0.0117-0.015c0.0043-0.0115-0.0015-0.0234,0.0018-0.035c0.0227-0.0768,0.0275-0.1555,0.0123-0.2343
	c-0.0026-0.0135-0.001-0.0261-0.0048-0.0394c-0.0192-0.0691-0.0501-0.1355-0.1002-0.1932
	c-0.0107-0.0124-0.0256-0.0178-0.0372-0.0288c-0.0065-0.0062-0.0068-0.0161-0.0136-0.022l-1.335-1.1562
	c-0.209-0.1807-0.5244-0.1582-0.7051,0.0508c-0.1807,0.2085-0.1582,0.5244,0.0508,0.7051l0.3213,0.2783h-4.2305h-4.9238h-4.2314
	l0.3213-0.2783c0.209-0.1812,0.2314-0.4966,0.0508-0.7056c-0.1807-0.2085-0.4971-0.231-0.7051-0.0503l-1.334,1.1562
	c-0.0066,0.0057-0.0068,0.0152-0.0131,0.0212c-0.0118,0.0112-0.0269,0.0165-0.0377,0.0291
	c-0.0501,0.058-0.0809,0.1246-0.1002,0.1938c-0.0037,0.0132-0.0022,0.0258-0.0048,0.0391
	C29.0722,23.5558,29.0771,23.6344,29.0997,23.7112z"/>
<path class="st0" d="M25.1406,37.7246v4.2305l-0.2783-0.3213c-0.1816-0.209-0.4971-0.2305-0.7051-0.0503
	c-0.209,0.1812-0.2314,0.4966-0.0508,0.7056l1.1562,1.334c0.0079,0.0092,0.0197,0.0125,0.0281,0.021
	c0.0089,0.009,0.0129,0.0209,0.0226,0.0293c0.0243,0.0211,0.053,0.0315,0.0798,0.0471c0.0198,0.0116,0.0372,0.0258,0.0583,0.0344
	c0.0609,0.0251,0.1245,0.0406,0.1891,0.0406c0.0586,0,0.1182-0.0103,0.1748-0.0317c0.004-0.0015,0.0057-0.006,0.0097-0.0076
	c0.072-0.0286,0.1393-0.0707,0.1934-0.1331l1.1562-1.334c0.1807-0.209,0.1582-0.5244-0.0508-0.7056
	c-0.209-0.1802-0.5254-0.1587-0.7051,0.0503l-0.2783,0.3211v-4.2303v-4.9243V28.57l0.2783,0.3211
	c0.0986,0.1138,0.2383,0.1724,0.3779,0.1724c0.1162,0,0.2324-0.04,0.3271-0.1221c0.209-0.1812,0.2314-0.4966,0.0508-0.7056
	l-1.1562-1.334c-0.0531-0.0613-0.1191-0.1013-0.1894-0.1299c-0.0056-0.0023-0.0081-0.0085-0.0137-0.0107
	c-0.0106-0.004-0.0217,0.0015-0.0324-0.0018c-0.0773-0.0231-0.1566-0.0282-0.236-0.0129c-0.0136,0.0026-0.0262,0.0011-0.0396,0.0048
	c-0.0693,0.0192-0.1359,0.05-0.1939,0.1002c-0.0121,0.0104-0.0173,0.025-0.0281,0.0363c-0.0064,0.0066-0.0166,0.007-0.0227,0.014
	l-1.1562,1.334c-0.1807,0.209-0.1582,0.5244,0.0508,0.7056c0.208,0.1807,0.5234,0.1582,0.7051-0.0503l0.2783-0.3213v4.2305V37.7246z
	"/>
</svg>
