<?xml version="1.0" encoding="utf-8"?>
<!-- Generator: Adobe Illustrator 26.0.1, SVG Export Plug-In . SVG Version: 6.00 Build 0)  -->
<svg version="1.1" id="Layer_1" xmlns="http://www.w3.org/2000/svg" xmlns:xlink="http://www.w3.org/1999/xlink" x="0px" y="0px"
	 viewBox="0 0 64 64" style="enable-background:new 0 0 64 64;" xml:space="preserve">
<style type="text/css">
	.st0{fill:#43BBC4;}
</style>
<path class="st0" d="M17.4609,48.3828h3.4043v2.5474c0,0.8271,0.6729,1.5,1.5,1.5h18.2861c0.0652,0,0.1299-0.013,0.1904-0.0379
	s0.116-0.0615,0.1631-0.1086l6.8877-6.8877c0.0629-0.0629,0.0989-0.143,0.1214-0.2275c0.0056-0.0208,0.0092-0.0392,0.0121-0.0605
	c0.0031-0.0222,0.013-0.0427,0.013-0.0654V17.1128c0-0.8271-0.6729-1.5-1.5-1.5h-3.4004v-2.543c0-0.8271-0.6729-1.5-1.5-1.5H17.4609
	c-0.8271,0-1.5,0.6729-1.5,1.5v33.813C15.9609,47.71,16.6338,48.3828,17.4609,48.3828z M41.1514,50.7231v-4.6807
	c0-0.2759,0.2246-0.5,0.5-0.5h4.6807L41.1514,50.7231z M47.0391,17.1128v27.4297h-5.3877c-0.8271,0-1.5,0.6729-1.5,1.5v5.3877
	H22.3652c-0.2754,0-0.5-0.2241-0.5-0.5V17.1128c0-0.2759,0.2246-0.5,0.5-0.5h20.2589c0.0051,0.0002,0.0093,0.0029,0.0145,0.0029
	s0.0094-0.0027,0.0145-0.0029h3.8859C46.8145,16.6128,47.0391,16.8369,47.0391,17.1128z M16.9609,13.0698
	c0-0.2759,0.2246-0.5,0.5-0.5h24.1777c0.2754,0,0.5,0.2241,0.5,0.5v2.543H22.3652c-0.8271,0-1.5,0.6729-1.5,1.5v30.27h-3.4043
	c-0.2754,0-0.5-0.2241-0.5-0.5V13.0698z"/>
<path class="st0" d="M32.1572,36.3335h-5.708c-0.2764,0-0.5,0.2236-0.5,0.5s0.2236,0.5,0.5,0.5h5.708c0.2764,0,0.5-0.2236,0.5-0.5
	S32.4336,36.3335,32.1572,36.3335z"/>
<path class="st0" d="M42.4551,31.7622H26.4492c-0.2764,0-0.5,0.2236-0.5,0.5s0.2236,0.5,0.5,0.5h16.0059
	c0.2764,0,0.5-0.2236,0.5-0.5S42.7314,31.7622,42.4551,31.7622z"/>
<path class="st0" d="M42.4551,27.1904H26.4492c-0.2764,0-0.5,0.2236-0.5,0.5s0.2236,0.5,0.5,0.5h16.0059
	c0.2764,0,0.5-0.2236,0.5-0.5S42.7314,27.1904,42.4551,27.1904z"/>
<path class="st0" d="M42.4551,22.6187H26.4492c-0.2764,0-0.5,0.2236-0.5,0.5s0.2236,0.5,0.5,0.5h16.0059
	c0.2764,0,0.5-0.2236,0.5-0.5S42.7314,22.6187,42.4551,22.6187z"/>
</svg>
