<?xml version="1.0" encoding="utf-8"?>
<!-- Generator: Adobe Illustrator 26.0.1, SVG Export Plug-In . SVG Version: 6.00 Build 0)  -->
<svg version="1.1" id="Layer_1" xmlns="http://www.w3.org/2000/svg" xmlns:xlink="http://www.w3.org/1999/xlink" x="0px" y="0px"
	 viewBox="0 0 64 64" style="enable-background:new 0 0 64 64;" xml:space="preserve">
<style type="text/css">
	.st0{fill:#43BBC4;}
</style>
<path class="st0" d="M15.46,19.4135v24.3424c0,1.5493,1.2607,2.8101,2.8101,2.8101h13.5898c0.2764,0,0.5-0.2236,0.5-0.5
	s-0.2236-0.5-0.5-0.5H18.27c-0.998,0-1.8101-0.812-1.8101-1.8101V19.8965H47.54v9.9194c0,0.2764,0.2236,0.5,0.5,0.5
	s0.5-0.2236,0.5-0.5V19.4135c0.0002-0.006,0.0034-0.0109,0.0034-0.017s-0.0032-0.011-0.0034-0.017v-3.0836
	c0-1.5493-1.2607-2.8101-2.8101-2.8101h-2.4692V12.418c0-0.2764-0.2236-0.5-0.5-0.5s-0.5,0.2236-0.5,0.5v1.0679h-3.3042V12.418
	c0-0.2764-0.2236-0.5-0.5-0.5s-0.5,0.2236-0.5,0.5v1.0679h-3.3042V12.418c0-0.2764-0.2236-0.5-0.5-0.5s-0.5,0.2236-0.5,0.5v1.0679
	h-3.3047V12.418c0-0.2764-0.2236-0.5-0.5-0.5s-0.5,0.2236-0.5,0.5v1.0679h-3.3042V12.418c0-0.2764-0.2236-0.5-0.5-0.5
	s-0.5,0.2236-0.5,0.5v1.0679h-3.3042V12.418c0-0.2764-0.2236-0.5-0.5-0.5s-0.5,0.2236-0.5,0.5v1.0679H18.27
	c-1.5493,0-2.8101,1.2607-2.8101,2.8101v3.0836c-0.0002,0.006-0.0034,0.0109-0.0034,0.017S15.4598,19.4075,15.46,19.4135z
	 M18.27,14.4858h2.4692v1.3232c0,0.2764,0.2236,0.5,0.5,0.5s0.5-0.2236,0.5-0.5v-1.3232h3.3042v1.3232c0,0.2764,0.2236,0.5,0.5,0.5
	s0.5-0.2236,0.5-0.5v-1.3232h3.3042v1.3232c0,0.2764,0.2236,0.5,0.5,0.5s0.5-0.2236,0.5-0.5v-1.3232h3.3047v1.3232
	c0,0.2764,0.2236,0.5,0.5,0.5s0.5-0.2236,0.5-0.5v-1.3232h3.3042v1.3232c0,0.2764,0.2236,0.5,0.5,0.5s0.5-0.2236,0.5-0.5v-1.3232
	h3.3042v1.3232c0,0.2764,0.2236,0.5,0.5,0.5s0.5-0.2236,0.5-0.5v-1.3232H45.73c0.998,0,1.8101,0.812,1.8101,1.8101v2.6006H16.46
	v-2.6006C16.46,15.2979,17.272,14.4858,18.27,14.4858z"/>
<path class="st0" d="M33.2065,41.6309c0,5.7627,4.6885,10.4512,10.4512,10.4512s10.4512-4.6885,10.4512-10.4512
	s-4.6885-10.4512-10.4512-10.4512S33.2065,35.8682,33.2065,41.6309z M48.8657,36.4229c0.0977,0.0977,0.2256,0.1465,0.3535,0.1465
	s0.2559-0.0488,0.3535-0.1465l1.1015-1.1015c1.403,1.5587,2.2919,3.5809,2.4093,5.8095h-1.5611c-0.2764,0-0.5,0.2236-0.5,0.5
	s0.2236,0.5,0.5,0.5h1.5611c-0.1174,2.2286-1.0063,4.2508-2.4093,5.8095l-1.1015-1.1015c-0.1953-0.1953-0.5117-0.1953-0.707,0
	s-0.1953,0.5117,0,0.707l1.1015,1.1015c-1.5587,1.403-3.5809,2.2919-5.8095,2.4093v-1.5606c0-0.2764-0.2236-0.5-0.5-0.5
	s-0.5,0.2236-0.5,0.5v1.5606c-2.2286-0.1174-4.2508-1.0063-5.8095-2.4093l1.1015-1.1015c0.1953-0.1953,0.1953-0.5117,0-0.707
	s-0.5117-0.1953-0.707,0l-1.1015,1.1015c-1.403-1.5587-2.2919-3.5809-2.4093-5.8095h1.5606c0.2764,0,0.5-0.2236,0.5-0.5
	s-0.2236-0.5-0.5-0.5h-1.5606c0.1174-2.2286,1.0063-4.2508,2.4093-5.8095l1.1015,1.1015c0.0977,0.0977,0.2256,0.1465,0.3535,0.1465
	s0.2559-0.0488,0.3535-0.1465c0.1953-0.1953,0.1953-0.5117,0-0.707l-1.1015-1.1015c1.5587-1.403,3.5809-2.2919,5.8095-2.4093v1.5606
	c0,0.2764,0.2236,0.5,0.5,0.5s0.5-0.2236,0.5-0.5V32.205c2.2286,0.1174,4.2508,1.0063,5.8095,2.4093l-1.1015,1.1015
	C48.6704,35.9111,48.6704,36.2275,48.8657,36.4229z"/>
<path class="st0" d="M47.0107,41.1309h-2.853v-3.3433c0-0.2764-0.2236-0.5-0.5-0.5s-0.5,0.2236-0.5,0.5v3.8433
	c0,0.2764,0.2236,0.5,0.5,0.5h3.353c0.2764,0,0.5-0.2236,0.5-0.5S47.2871,41.1309,47.0107,41.1309z"/>
</svg>
