<?xml version="1.0" encoding="utf-8"?>
<!-- Generator: Adobe Illustrator 26.0.1, SVG Export Plug-In . SVG Version: 6.00 Build 0)  -->
<svg version="1.1" id="Layer_1" xmlns="http://www.w3.org/2000/svg" xmlns:xlink="http://www.w3.org/1999/xlink" x="0px" y="0px"
	 viewBox="0 0 64 64" style="enable-background:new 0 0 64 64;" xml:space="preserve">
<style type="text/css">
	.st0{fill:#43BBC4;}
</style>
<path class="st0" d="M55.6909,19.6475c0-0.2764-0.2236-0.5-0.5-0.5h-4.3442c0.9291-0.7767,1.5337-1.9292,1.5337-3.2319v-0.2002
	h0.8418c0.2764,0,0.5-0.2236,0.5-0.5s-0.2236-0.5-0.5-0.5h-0.8418v-0.6616c0-0.2764-0.2236-0.5-0.5-0.5h-7.4609
	c-0.2764,0-0.5,0.2236-0.5,0.5v0.6616h-0.8442c-0.2764,0-0.5,0.2236-0.5,0.5s0.2236,0.5,0.5,0.5h0.8442v0.2002
	c0,1.3027,0.6046,2.4553,1.5337,3.2319H33.0586V18.48c0-0.2764-0.2236-0.5-0.5-0.5s-0.5,0.2236-0.5,0.5v0.6675h-2.6904v-6.3936
	c0-1.0093,0.8213-1.8306,1.8306-1.8306c0.8464,0,1.5538,0.5806,1.7623,1.3623h-0.5504c-0.2764,0-0.5,0.2236-0.5,0.5
	s0.2236,0.5,0.5,0.5h2.2378c0.2764,0,0.5-0.2236,0.5-0.5s-0.2236-0.5-0.5-0.5h-0.6665c-0.2249-1.3373-1.383-2.3623-2.7832-2.3623
	c-1.5605,0-2.8306,1.27-2.8306,2.8306v6.3936H16.5493v-1.4771c0-1.729-1.4067-3.1357-3.1357-3.1357s-3.1357,1.4067-3.1357,3.1357
	v1.4771H8.8091c-0.2764,0-0.5,0.2236-0.5,0.5v23.0166c0,0.7393,0.6064,1.3408,1.3521,1.3408h13.5991
	c-0.0566,0.4178-0.0952,0.8293-0.0952,1.2373c0,4.8711,3.9634,8.834,8.835,8.834s8.835-3.9629,8.835-8.834
	c0-0.408-0.0386-0.8195-0.0952-1.2373h13.5991c0.7456,0,1.3521-0.6016,1.3521-1.3408V19.6475z M44.9194,15.9155v-1.3618h6.4609
	v1.3618c0,1.7812-1.4492,3.2305-3.2305,3.2305S44.9194,17.6968,44.9194,15.9155z M11.2778,17.6704
	c0-1.1777,0.958-2.1357,2.1357-2.1357s2.1357,0.958,2.1357,2.1357v1.4756h-4.2715V17.6704z M54.6909,20.1475v2.7388H9.3091v-2.7388
	H54.6909z M24.1626,41.1725v-7.4889h15.6748v7.4861c-1.4999-2.8561-4.5038-4.7625-7.8374-4.7625
	C28.6672,36.4072,25.6639,38.3129,24.1626,41.1725z M39.8374,32.6836H24.1626v-8.7974h15.6748V32.6836z M9.3091,42.6641V23.8862
	h13.8535v19.1187H9.6611C9.4639,43.0049,9.3091,42.8555,9.3091,42.6641z M32,53.0762c-4.3203,0-7.835-3.5146-7.835-7.834
	c0-0.5352,0.0542-1.0723,0.1636-1.6328c0.7715-3.5938,3.9976-6.2021,7.6714-6.2021c3.6724,0,6.8979,2.6064,7.6704,6.1982
	c0.1108,0.5674,0.1646,1.1035,0.1646,1.6367C39.835,49.5615,36.3203,53.0762,32,53.0762z M54.3389,43.0049H40.8374V23.8862h13.8535
	v18.7778C54.6909,42.8555,54.5361,43.0049,54.3389,43.0049z"/>
<path class="st0" d="M51.6226,31.0762c-0.2764,0-0.5,0.2236-0.5,0.5v1.6396c0,0.2764,0.2236,0.5,0.5,0.5s0.5-0.2236,0.5-0.5v-1.6396
	C52.1226,31.2998,51.8989,31.0762,51.6226,31.0762z"/>
<path class="st0" d="M19.9282,31.0762c-0.2764,0-0.5,0.2236-0.5,0.5v1.6396c0,0.2764,0.2236,0.5,0.5,0.5s0.5-0.2236,0.5-0.5v-1.6396
	C20.4282,31.2998,20.2046,31.0762,19.9282,31.0762z"/>
<path class="st0" d="M32.9159,43.77c0.2177-1.0145-0.0923-2.0981-0.8368-2.8325c-0.8174-0.8281-2.0225-1.1211-3.1431-0.7646
	c-0.0064,0.0021-0.0106,0.0071-0.0169,0.0094c-0.0303,0.0109-0.0564,0.0302-0.0845,0.0471
	c-0.0296,0.0179-0.0602,0.0332-0.085,0.0564c-0.0046,0.0043-0.0107,0.0056-0.0153,0.0101
	c-0.0171,0.0171-0.0243,0.0391-0.0384,0.0578c-0.0217,0.0288-0.0438,0.0559-0.0588,0.0886
	c-0.0136,0.0297-0.0192,0.0601-0.0267,0.0914c-0.0076,0.0311-0.0166,0.0605-0.0181,0.093
	c-0.0016,0.0349,0.0055,0.0682,0.0112,0.1027c0.0039,0.0242,0.0002,0.0482,0.0079,0.0723c0.0021,0.0065,0.0072,0.0107,0.0095,0.017
	c0.0109,0.03,0.0302,0.056,0.0469,0.0839c0.0178,0.0292,0.0328,0.0594,0.0557,0.0839c0.0046,0.0049,0.006,0.0115,0.0109,0.0163
	l1.3936,1.3936l-0.9639,0.9639l-1.3936-1.3936c-0.0037-0.0037-0.0087-0.0048-0.0125-0.0083
	c-0.0247-0.0235-0.0559-0.0387-0.0857-0.0569c-0.0276-0.0168-0.0531-0.0367-0.0829-0.0477
	c-0.0053-0.002-0.0088-0.0063-0.0142-0.0082c-0.0266-0.009-0.0532-0.0057-0.08-0.0101c-0.0319-0.0051-0.0624-0.0132-0.0947-0.0121
	c-0.0377,0.0012-0.0724,0.0116-0.1083,0.0211c-0.0262,0.0068-0.052,0.0103-0.077,0.0214c-0.0369,0.0164-0.0676,0.0412-0.0996,0.0661
	c-0.0168,0.0129-0.0367,0.0193-0.0521,0.0347c-0.0034,0.0034-0.0043,0.0081-0.0076,0.0115
	c-0.0234,0.0248-0.0387,0.0559-0.0569,0.0857c-0.0173,0.0283-0.0374,0.0545-0.0486,0.085
	c-0.0018,0.0049-0.0058,0.0081-0.0074,0.0131c-0.186,0.5566-0.2056,1.1416-0.0625,1.666c0.1182,0.5547,0.3994,1.0664,0.813,1.4805
	c0.5977,0.5967,1.3853,0.916,2.1914,0.916c0.2169,0,0.4344-0.0321,0.6509-0.0791l3.8223,3.8223
	c0.3145,0.3145,0.7388,0.4883,1.1812,0.4883c0.0488,0,0.0977-0.002,0.1465-0.0059c0.4946-0.043,0.9429-0.3018,1.2295-0.71
	c0.4648-0.6592,0.3628-1.6084-0.2368-2.207L32.9159,43.77z M36.0972,49.165c-0.1187,0.168-0.2954,0.2715-0.498,0.2881
	c-0.1973,0.0225-0.3936-0.0527-0.5342-0.1924l-4.0195-4.0195c-0.0153-0.0153-0.0352-0.0215-0.0519-0.0345
	c-0.0317-0.0248-0.0623-0.0493-0.0989-0.0657c-0.0254-0.0114-0.0518-0.0153-0.0784-0.0222
	c-0.0353-0.0093-0.0692-0.0194-0.1063-0.0206c-0.0344-0.0013-0.0672,0.0068-0.1012,0.0126
	c-0.0247,0.0043-0.0491,0.0009-0.0736,0.0092c-0.749,0.248-1.5669,0.0479-2.1343-0.5186c-0.2773-0.2773-0.4648-0.6172-0.5493-1.0088
	c-0.0129-0.0479-0.0077-0.0988-0.0167-0.1476l0.9757,0.9757c0.0977,0.0977,0.2256,0.1465,0.3535,0.1465s0.2559-0.0488,0.3535-0.1465
	l1.6709-1.6709c0.1953-0.1953,0.1953-0.5117,0-0.707l-0.9777-0.9777c0.4316,0.0679,0.8406,0.2551,1.1613,0.5803
	c0.5571,0.5488,0.7598,1.3818,0.5156,2.1221c-0.0081,0.0244-0.0046,0.0489-0.0088,0.0735
	c-0.0058,0.0345-0.0136,0.0676-0.0123,0.1025c0.0013,0.0335,0.0109,0.064,0.0187,0.0962c0.0073,0.0302,0.012,0.0599,0.025,0.0886
	c0.0153,0.0337,0.0383,0.0616,0.0606,0.0912c0.0141,0.0187,0.0213,0.0407,0.0383,0.0577l3.9619,3.9629
	C36.1924,48.4619,36.312,48.8604,36.0972,49.165z"/>
</svg>
