<?xml version="1.0" encoding="utf-8"?>
<!-- Generator: Adobe Illustrator 26.0.1, SVG Export Plug-In . SVG Version: 6.00 Build 0)  -->
<svg version="1.1" id="Layer_1" xmlns="http://www.w3.org/2000/svg" xmlns:xlink="http://www.w3.org/1999/xlink" x="0px" y="0px"
	 viewBox="0 0 64 64" style="enable-background:new 0 0 64 64;" xml:space="preserve">
<style type="text/css">
	.st0{fill:#43BBC4;}
</style>
<path class="st0" d="M43.6893,45.1346c-0.1318-0.205-0.2773-0.3807-0.454-0.574l-4.8154-4.8018
	c-0.1953-0.1934-0.5117-0.1943-0.707,0.001l-0.1943,0.1934c-0.1348,0.1367-0.3604,0.1436-0.5127-0.0068
	c-0.0615-0.0605-0.0967-0.1426-0.0977-0.2314c-0.001-0.0947,0.0361-0.1855,0.1064-0.2559l0.2061-0.207
	c0.1943-0.1953,0.1943-0.5117-0.002-0.707c-0.1953-0.1934-0.5117-0.1953-0.707,0.002l-0.2051,0.2061
	c-0.2607,0.2607-0.4023,0.6064-0.3984,0.9727c0.0039,0.3604,0.1475,0.6943,0.3975,0.9346c0.459,0.46,1.2324,0.5195,1.748,0.1465
	l4.459,4.4453c0.1216,0.1343,0.2336,0.2668,0.3338,0.4224c0.0001,0.0002,0.0001,0.0003,0.0002,0.0005
	c0.4883,0.7637,0.4883,1.7598,0.001,2.5332c-0.3379,0.5273-0.8613,0.8916-1.4736,1.0244c-0.6172,0.1328-1.2432,0.0186-1.7705-0.3223
	c-0.0039-0.0025-0.0085-0.0025-0.0125-0.0049s-0.006-0.0065-0.01-0.0088c-0.125-0.0713-0.2471-0.168-0.373-0.2949l-4.4668-4.4668
	c0.3828-0.5303,0.3359-1.2773-0.1416-1.7549c-0.5303-0.5303-1.3906-0.5293-1.9092-0.0107l-0.2061,0.1934
	c-0.2021,0.1885-0.2119,0.5049-0.0225,0.7061c0.1875,0.2041,0.5068,0.2119,0.7061,0.0225l0.2178-0.2041
	c0.1416-0.1396,0.3672-0.1377,0.5068,0c0.1396,0.1396,0.1396,0.3672,0.0127,0.4951l-0.207,0.1934
	c-0.0996,0.0928-0.1572,0.2207-0.1592,0.3564s0.0508,0.2666,0.1465,0.3623L38.5,49.3076c0.1807,0.1816,0.363,0.3238,0.5556,0.4376
	c0.002,0.0013,0.0029,0.0035,0.0049,0.0048c0.0038,0.0025,0.0081,0.0041,0.0119,0.0065c0.0036,0.0021,0.007,0.0051,0.0106,0.0071
	c0.0015,0.0009,0.0032,0.0004,0.0046,0.0012c0.5406,0.3425,1.154,0.5222,1.7815,0.5222c0.2383,0,0.4775-0.0264,0.7168-0.0771
	c0.874-0.1904,1.6211-0.709,2.1055-1.4658c0.6943-1.1025,0.6943-2.5186-0.001-3.6084
	C43.6901,45.1353,43.6896,45.1351,43.6893,45.1346z"/>
<path class="st0" d="M21.5195,31.0869c0.0674,0.1162,0.1797,0.2012,0.3096,0.2344l1.4707,0.375l4.2871,4.2773
	c0.0977,0.0967,0.2256,0.1455,0.3535,0.1455s0.2568-0.0488,0.3545-0.1465c0.1943-0.1963,0.1943-0.5127-0.001-0.708l-4.3848-4.373
	c-0.0635-0.0625-0.1426-0.1074-0.2295-0.1299l-1.3984-0.3574l-1.3291-2.3027l1.083-1.0752l2.3018,1.3184l0.3477,1.4072
	c0.0215,0.0879,0.0674,0.1689,0.1318,0.2334l4.3848,4.3848c0.1953,0.1953,0.5117,0.1953,0.707,0s0.1953-0.5117,0-0.707
	l-4.2861-4.2861l-0.3652-1.4795c-0.0322-0.1328-0.1182-0.2461-0.2373-0.3135l-2.8184-1.6143
	c-0.1943-0.1123-0.4404-0.0801-0.6006,0.0791l-1.626,1.6143c-0.1611,0.1592-0.1943,0.4082-0.0811,0.6045L21.5195,31.0869z"/>
<path class="st0" d="M43.7139,29.2832c-0.1738-0.0459-0.3594,0.002-0.4863,0.1289l-2.4678,2.4668l-1.8887-0.6299l-0.6289-1.8887
	l2.4668-2.4668c0.127-0.127,0.1758-0.3125,0.1289-0.4854c-0.0479-0.1738-0.1846-0.3086-0.3584-0.3525
	c-1.2754-0.3262-2.5957-0.1348-3.7246,0.5352c-1.1289,0.6709-1.9297,1.7402-2.2549,3.0127
	c-0.1787,0.7012-0.2002,1.4385-0.0635,2.1484l-8.7549,8.7549c-2.5605-0.4902-5.0957,1.0938-5.7451,3.6494
	c-0.6729,2.6514,0.9365,5.3555,3.5869,6.0283c0.4072,0.1035,0.8164,0.1533,1.2188,0.1533c2.2148,0,4.2393-1.498,4.8086-3.7402
	c0.1787-0.7051,0.2002-1.4453,0.0635-2.1592l8.7549-8.7549c2.5342,0.4863,5.0518-1.083,5.6963-3.6172
	c0.2021-0.793,0.2021-1.6309,0-2.4238C44.0215,29.4678,43.8867,29.3311,43.7139,29.2832z M43.0967,31.8203
	c-0.5332,2.0938-2.6689,3.3613-4.7637,2.8311c-0.1719-0.0449-0.3525,0.0068-0.4766,0.1309l-9.1436,9.1436
	c-0.125,0.125-0.1748,0.3057-0.1309,0.4766c0.1611,0.6377,0.1611,1.3125,0,1.9492c-0.5381,2.1162-2.6963,3.3994-4.8125,2.8643
	c-2.1162-0.5381-3.4004-2.6973-2.8643-4.8135c0.4551-1.79,2.0703-2.9854,3.8389-2.9854c0.3213,0,0.6484,0.04,0.9736,0.1221
	c0.1729,0.0449,0.3525-0.0059,0.4766-0.1309l9.1436-9.1436c0.125-0.125,0.1748-0.3057,0.1309-0.4766
	c-0.1611-0.6348-0.1611-1.3037,0-1.9365c0.4541-1.7783,2.0352-2.9648,3.8174-2.9492l-1.9697,1.9697
	c-0.1338,0.1338-0.1807,0.332-0.1211,0.5117l0.8057,2.4189c0.0498,0.1494,0.167,0.2666,0.3164,0.3164l2.4189,0.8066
	c0.1807,0.0586,0.3779,0.0137,0.5117-0.1211l1.9688-1.9678C43.2188,31.168,43.1777,31.498,43.0967,31.8203z"/>
<path class="st0" d="M26.4072,43.0791c-0.0898-0.1514-0.2529-0.2432-0.4287-0.2432h-2.4189c-0.1758,0-0.3389,0.0918-0.4287,0.2432
	l-1.21,2.0166c-0.0947,0.1582-0.0947,0.3555,0,0.5146l1.21,2.0156c0.0908,0.1504,0.2529,0.2422,0.4287,0.2422h2.4189
	c0.1758,0,0.3389-0.0918,0.4287-0.2432l1.209-2.0156c0.0947-0.1582,0.0947-0.3555,0-0.5137L26.4072,43.0791z M25.6953,46.8682
	h-1.8525l-0.9102-1.5156l0.9102-1.5166h1.8525l0.9092,1.5166L25.6953,46.8682z"/>
<path class="st0" d="M46.7393,24.4609v-6.9102c0-0.2764-0.2236-0.5-0.5-0.5h-6.9158l-5.2912-5.2988
	c-1.1221-1.1191-2.9443-1.1182-4.0625,0.001L9.5918,32.1289c-0.8066,0.8086-0.7188,1.4316-0.5947,1.7305
	c0.124,0.2998,0.5029,0.8018,1.6445,0.8018h4.2441v17.668c0,0.7266,0.5918,1.3184,1.3184,1.3184h20.542h2.4941h8.5547
	c0.7266,0,1.3174-0.5908,1.3174-1.3174V34.6611h4.2471c1.1416,0,1.5205-0.502,1.6445-0.8018
	c0.124-0.2988,0.2109-0.9219-0.5967-1.7295L46.7393,24.4609z M54.0791,33.4766c-0.0156,0.0391-0.1855,0.1846-0.7197,0.1846h-4.7471
	c-0.2764,0-0.5,0.2236-0.5,0.5v18.1689c0,0.1719-0.1455,0.3174-0.3174,0.3174h-8.5547h-2.4941h-20.542
	c-0.1729,0-0.3184-0.1455-0.3184-0.3184v-18.168c0-0.2764-0.2236-0.5-0.5-0.5h-4.7441c-0.4873,0-0.6963-0.124-0.7207-0.1846
	c-0.0254-0.0605,0.0342-0.2959,0.3779-0.6406L30.6768,12.46c0.7305-0.7285,1.9189-0.7285,2.6494,0l5.4359,5.4437
	c0.0463,0.0464,0.1017,0.0832,0.1632,0.1086c0.0611,0.0253,0.1259,0.0385,0.1909,0.0385h6.623v6.6172
	c0,0.0651,0.0132,0.1298,0.0385,0.1909c0.0255,0.0615,0.0623,0.1169,0.1086,0.1632l7.8138,7.8148
	C54.0781,33.2158,54.0957,33.4385,54.0791,33.4766z"/>
</svg>
