<?xml version="1.0" encoding="utf-8"?>
<!-- Generator: Adobe Illustrator 26.0.1, SVG Export Plug-In . SVG Version: 6.00 Build 0)  -->
<svg version="1.1" id="Layer_1" xmlns="http://www.w3.org/2000/svg" xmlns:xlink="http://www.w3.org/1999/xlink" x="0px" y="0px"
	 viewBox="0 0 64 64" style="enable-background:new 0 0 64 64;" xml:space="preserve">
<style type="text/css">
	.st0{fill:#43BBC4;}
</style>
<path class="st0" d="M55.605,46.5967h-1.249v-1.3975c0.5596-0.6992,0.8691-1.5684,0.876-2.4688c0-0.002,0-0.0039,0-0.0068
	c-0.0068-1.3174-0.6699-2.5518-1.749-3.29v-1.5027c1.9653-0.2494,3.4956-1.9137,3.4956-3.9465c0-0.2764-0.2236-0.5-0.5-0.5H53.856
	c-0.3973,0-0.7743,0.0818-1.1242,0.2177c0.0774-0.274,0.131-0.5558,0.131-0.8486c0-0.835-0.3252-1.6201-0.9155-2.21L50.0918,28.79
	c-0.1953-0.1953-0.5117-0.1953-0.707,0c-1.2728,1.2733-1.4877,3.1917-0.681,4.7037c-0.0316-0.001-0.0611-0.0094-0.093-0.0094
	h-2.6226c-0.2764,0-0.5,0.2236-0.5,0.5c0,2.033,1.5317,3.6974,3.499,3.9465v1.5037c-0.8945,0.6152-1.5,1.5635-1.6768,2.6436
	c-0.1836,1.1143,0.1074,2.2393,0.8003,3.1182v1.4004h-5.1216v-5.6201c0-0.2764-0.2236-0.5-0.5-0.5h-4.3696
	c-0.2764,0-0.5,0.2236-0.5,0.5v5.6201h-1.248c-1.2402,0-2.2495,1.0098-2.2495,2.251c0,1.2393,1.0093,2.248,2.2495,2.248h2.092
	l-2.6487,8.0879c-0.0859,0.2617,0.0571,0.5449,0.3193,0.6309c0.0518,0.0166,0.1045,0.0244,0.1558,0.0244
	c0.2104,0,0.4062-0.1338,0.4751-0.3447l2.7504-8.3984h13.0029l2.7336,8.3975c0.0688,0.2119,0.2646,0.3457,0.4756,0.3457
	c0.0513,0,0.1035-0.0078,0.1548-0.0244c0.2627-0.0859,0.4062-0.3682,0.3208-0.6299l-2.6332-8.0889h2.035
	c1.2402,0,2.2495-1.0088,2.2495-2.248C57.8545,47.6064,56.8452,46.5967,55.605,46.5967z M55.937,34.4844
	c-0.2388,1.415-1.4727,2.4971-2.9541,2.4971h-1.2495v-0.375c0-1.1699,0.9521-2.1221,2.1226-2.1221H55.937z M50.0918,33.7363
	c-1.0479-1.0488-1.1558-2.6865-0.3237-3.8564l1.4722,1.4707c0.4014,0.4014,0.6226,0.9355,0.6226,1.5029s-0.2212,1.0996-0.6226,1.501
	l-0.2517,0.2521c-0.1577-0.1871-0.3326-0.3571-0.5295-0.5029L50.0918,33.7363z M46.5298,34.4844h2.0811
	c0.4316,0,0.8326,0.1311,1.168,0.3533l0.6017,0.6019c0.2219,0.3353,0.3528,0.7357,0.3528,1.1669v0.375h-1.2461
	C48.0039,36.9814,46.769,35.8994,46.5298,34.4844z M48.9883,44.6885c-0.585-0.6729-0.8369-1.5645-0.6914-2.4482
	c0.145-0.8818,0.6709-1.6475,1.4434-2.0996c0.1528-0.0898,0.2471-0.2539,0.2471-0.4316v-1.7275h1.2461h1.2495v1.7275
	c0,0.1787,0.0947,0.3428,0.249,0.4326c0.9189,0.5322,1.4932,1.5225,1.5,2.584c-0.0059,0.7236-0.2725,1.4189-0.7505,1.96
	c-0.0811,0.0908-0.1255,0.209-0.1255,0.3311v1.5801h-4.2451v-1.5801C49.1108,44.8965,49.0674,44.7793,48.9883,44.6885z
	 M38.6196,41.4766h3.3696v5.1201h-3.3696V41.4766z M55.605,50.0957H36.3716c-0.689,0-1.2495-0.5596-1.2495-1.248
	c0-0.6895,0.5605-1.251,1.2495-1.251h1.748h4.3696h6.1216h5.2451h1.749c0.689,0,1.2495,0.5615,1.2495,1.251
	C56.8545,49.5361,56.2939,50.0957,55.605,50.0957z"/>
<path class="st0" d="M24.8564,44.8486h-1.9741v-2.9971c0-2.2041-1.793-3.9971-3.9971-3.9971h-5.2471
	c-0.688,0-1.248-0.5596-1.248-1.248v-2.4648c0.0293-1.6826-1.2603-3.1221-2.9556-3.2793c-0.8481-0.0479-1.6992,0.2666-2.3164,0.8535
	c-0.6206,0.5869-0.9751,1.4141-0.9727,2.2686v13.1123c0,2.0002,1.4795,3.6471,3.3979,3.9385l-1.6406,8.205
	c-0.0293,0.1465,0.0088,0.2988,0.1035,0.415c0.0952,0.1152,0.2368,0.1826,0.3867,0.1826h1.748c0.2046,0,0.3882-0.124,0.4644-0.3145
	l3.3713-8.4277h6.3194l3.3699,8.4277c0.0762,0.1904,0.2598,0.3145,0.4644,0.3145h1.7495c0.1499,0,0.2915-0.0674,0.3867-0.1826
	c0.0947-0.1162,0.1328-0.2686,0.1035-0.415l-1.6299-8.1445h0.2646c0.854,0,1.6807-0.3545,2.2676-0.9717
	c0.5898-0.6211,0.9014-1.4658,0.853-2.3369C27.9702,46.1133,26.5464,44.8545,24.8564,44.8486z M9.8027,58.8379H9.0029l1.5483-7.7422
	h2.3481L9.8027,58.8379z M25.27,58.8379h-0.8013l-3.0957-7.7422h2.3477L25.27,58.8379z M26.5479,49.4346
	c-0.3994,0.4199-0.9614,0.6611-1.543,0.6611h-0.8745h-3.4956h-6.9966h-3.4971c-1.6519,0-2.9956-1.3457-2.9956-2.999V33.9834
	c-0.0015-0.5811,0.2388-1.1426,0.6611-1.542c0.394-0.375,0.9243-0.585,1.4521-0.585c0.0342,0,0.0688,0.001,0.103,0.0029
	c1.1577,0.1074,2.0488,1.1025,2.0283,2.2734v2.4736c0,1.2393,1.0083,2.248,2.248,2.248h5.2471c1.6528,0,2.9971,1.3447,2.9971,2.9971
	v5.2451c0,0.2764,0.2236,0.5,0.5,0.5s0.5-0.2236,0.5-0.5v-1.248h1.9819c0.0117,0,0.0234,0,0.0352,0
	c1.1475,0,2.124,0.8848,2.229,2.0117C27.1602,48.4395,26.9487,49.0137,26.5479,49.4346z"/>
<path class="st0" d="M54.8877,9.5986h-3.2919l-4.1847-5.249c-0.0947-0.1191-0.2383-0.1885-0.3901-0.1885c-0.0005,0-0.0005,0-0.001,0
	c-0.1514,0-0.2949,0.0684-0.3896,0.1865l-4.2174,5.251h-3.2616c-0.2764,0-0.5,0.2236-0.5,0.5v11.3652v4.3721
	c0,0.2764,0.2236,0.5,0.5,0.5h15.7363c0.2764,0,0.5-0.2236,0.5-0.5v-4.3721V10.0986C55.3877,9.8223,55.1641,9.5986,54.8877,9.5986z
	 M47.0186,5.4609l3.2984,4.1377h-6.6212L47.0186,5.4609z M54.3877,10.5986v10.1252l-1.8579-0.7473
	c-1.2935-0.5107-2.769-0.2061-3.7549,0.7734c-0.0005,0-0.0005,0.001-0.001,0.001c-0.9663,0.9678-2.5391,0.9658-3.5073-0.001
	c-0.9868-0.9805-2.4604-1.2842-3.7568-0.7725l-1.8584,0.7466V10.5986H54.3877z M54.3877,25.3359H39.6514v-3.5342l2.2285-0.8955
	c0.9243-0.3633,1.9771-0.1475,2.6807,0.5518c1.3564,1.3574,3.563,1.3564,4.9194,0.001c0.7041-0.6992,1.7573-0.918,2.6802-0.5537
	l2.2275,0.8965V25.3359z"/>
<path class="st0" d="M47.0205,18.4678c1.7222,0,3.123-1.4004,3.123-3.1221s-1.4009-3.123-3.123-3.123
	c-1.7227,0-3.124,1.4014-3.124,3.123S45.2979,18.4678,47.0205,18.4678z M47.0205,13.2227c1.1704,0,2.123,0.9521,2.123,2.123
	c0,1.1699-0.9526,2.1221-2.123,2.1221c-1.1714,0-2.124-0.9521-2.124-2.1221C44.8965,14.1748,45.8491,13.2227,47.0205,13.2227z"/>
<path class="st0" d="M32.9814,9.5361c-0.7115-0.2446-2.6779,1-5.6249,3.5186c-0.181-0.5583-0.4305-1.1067-0.7579-1.6358
	c-0.4062-0.6582-0.8936-1.2744-1.4478-1.8311c-1.9155-1.9248-4.582-3.0967-7.3159-3.2148c-2.689-0.1191-6.1172,0.8984-7.7173,3.4229
	c-0.875,1.3799-0.7554,3.2363,0.2852,4.4131c0.293,0.332,0.6265,0.6035,0.9492,0.8652c0.417,0.3398,0.811,0.6602,1.0757,1.0752
	c0.5908,0.9268-0.0522,1.9756-0.9341,2.582c-0.6528,0.4492-1.3281,0.9131-1.667,1.8096c-0.3052,0.8066-0.2744,1.7148,0.0938,2.7764
	c0.6265,1.8057,2.0684,3.0566,4.2871,3.7178c1.1035,0.3281,2.2192,0.4883,3.314,0.4883c2.8696,0,5.5933-1.1006,7.5537-3.1504
	c2.7242-2.8486,3.0763-6.3973,3.1219-7.2613c2.1755-2.434,4.4658-5.2474,5.0905-6.9291c0.0469-0.126,0.041-0.2656-0.0166-0.3877
	S33.1089,9.5801,32.9814,9.5361z M24.3525,23.6816c-2.4478,2.5596-6.2246,3.4785-9.8599,2.3945
	c-1.8921-0.5635-3.1123-1.6016-3.6274-3.0869c-0.292-0.8428-0.3252-1.5078-0.103-2.0947c0.228-0.6035,0.7002-0.9277,1.3325-1.3623
	c1.231-0.8467,2.1235-2.4346,1.1763-3.9199c-0.3516-0.5518-0.8276-0.9385-1.2881-1.3135c-0.3047-0.248-0.5923-0.4814-0.8311-0.752
	c-0.752-0.8506-0.8315-2.2031-0.1895-3.2158c1.3784-2.1738,4.5078-3.0684,6.8296-2.958c2.4858,0.1074,4.9097,1.1719,6.6499,2.9199
	c0.5005,0.5029,0.9395,1.0586,1.3062,1.6514c0.3685,0.5963,0.6118,1.2165,0.7635,1.8446c-0.5363,0.4722-1.1043,0.9864-1.6955,1.5314
	c0.3035-0.332,0.4935-0.7696,0.4935-1.2539c0-1.0293-0.8374-1.8662-1.8662-1.8662s-1.8662,0.8369-1.8662,1.8662
	s0.8374,1.8662,1.8662,1.8662c0.437,0,0.8342-0.1573,1.1526-0.4099c-1.0558,0.9783-2.1938,2.0673-3.4079,3.2626
	c-0.4323-0.0403-0.9671,0.1105-1.2974,0.2498c-1.1738,0.4922-1.8472,1.4609-1.8472,2.6582c0,1.6914-1.0967,2.0264-1.2163,2.0576
	c-0.2202,0.0518-0.3779,0.2451-0.3853,0.4707c-0.0068,0.2266,0.1387,0.4287,0.3555,0.4941
	c0.9946,0.3008,1.9004,0.4512,2.7134,0.4512c1.0391,0,1.9268-0.2461,2.6533-0.7354c1.3166-0.888,1.6626-2.2843,1.7479-2.783
	c0.3734-0.3738,1.6187-1.6331,3.101-3.2368C26.7346,19.8007,26.0494,21.9075,24.3525,23.6816z M24.3096,14.0664
	c0,0.4775-0.3887,0.8662-0.8662,0.8662s-0.8662-0.3887-0.8662-0.8662s0.3887-0.8662,0.8662-0.8662S24.3096,13.5889,24.3096,14.0664z
	 M21.0717,19.776l1.835,1.8077c-0.093,0.4325-0.3959,1.4128-1.3115,2.0247c-0.8301,0.5547-1.9722,0.6953-3.4009,0.4258
	c0.4629-0.4824,0.8491-1.2354,0.8491-2.3408c0-0.5723,0.2197-1.041,0.6528-1.3926C20.2137,19.8808,20.8459,19.7667,21.0717,19.776z
	 M23.4395,20.7041l-1.3882-1.3672c5.6509-5.5518,8.4414-7.6143,9.731-8.3809C29.8975,14.0762,24.8184,19.3076,23.4395,20.7041z"/>
<path class="st0" d="M15.8398,12.459c0-1.0293-0.8374-1.8662-1.8662-1.8662s-1.8662,0.8369-1.8662,1.8662
	s0.8374,1.8662,1.8662,1.8662S15.8398,13.4883,15.8398,12.459z M13.1074,12.459c0-0.4775,0.3887-0.8662,0.8662-0.8662
	s0.8662,0.3887,0.8662,0.8662s-0.3887,0.8662-0.8662,0.8662S13.1074,12.9365,13.1074,12.459z"/>
<path class="st0" d="M19.062,12.959c1.0288,0,1.8662-0.8369,1.8662-1.8662s-0.8374-1.8662-1.8662-1.8662
	c-1.0293,0-1.8667,0.8369-1.8667,1.8662S18.0327,12.959,19.062,12.959z M19.062,10.2266c0.4775,0,0.8662,0.3887,0.8662,0.8662
	s-0.3887,0.8662-0.8662,0.8662c-0.478,0-0.8667-0.3887-0.8667-0.8662S18.584,10.2266,19.062,10.2266z"/>
<path class="st0" d="M14.6372,19.9111c-1.0288,0-1.8662,0.8369-1.8662,1.8662s0.8374,1.8662,1.8662,1.8662
	s1.8662-0.8369,1.8662-1.8662S15.666,19.9111,14.6372,19.9111z M14.6372,22.6436c-0.4775,0-0.8662-0.3887-0.8662-0.8662
	s0.3887-0.8662,0.8662-0.8662s0.8662,0.3887,0.8662,0.8662S15.1147,22.6436,14.6372,22.6436z"/>
</svg>
