<?xml version="1.0" encoding="utf-8"?>
<!-- Generator: Adobe Illustrator 26.0.1, SVG Export Plug-In . SVG Version: 6.00 Build 0)  -->
<svg version="1.1" id="Layer_1" xmlns="http://www.w3.org/2000/svg" xmlns:xlink="http://www.w3.org/1999/xlink" x="0px" y="0px"
	 viewBox="0 0 64 64" style="enable-background:new 0 0 64 64;" xml:space="preserve">
<style type="text/css">
	.st0{fill:#43BBC4;}
</style>
<path class="st0" d="M13.7036,49.895c0,1.4141,1.1504,2.5645,2.5649,2.5645H35.54c1.4146,0,2.5649-1.1504,2.5649-2.5645v-3.4414
	c0-0.0017-0.001-0.0031-0.001-0.0048v-3.543c0-0.2764-0.2236-0.5-0.5-0.5s-0.5,0.2236-0.5,0.5v3.5439
	c0,0.4119-0.1618,0.7843-0.4205,1.0646c-0.286,0.3082-0.6909,0.5043-1.1434,0.5043H16.2686c-0.8628,0-1.5649-0.7021-1.5649-1.5649
	c0-0.0034-0.0019-0.0063-0.002-0.0097V14.104c0-0.8604,0.7041-1.5601,1.5698-1.5601h2.5361l1.8174,1.9443
	c0.2272,0.238,0.4988,0.4233,0.7916,0.5598c0.0208,0.0096,0.039,0.0242,0.06,0.0333c0.3219,0.14,0.6705,0.2155,1.0239,0.2155h6.8145
	c0.3498,0,0.6952-0.075,1.0151-0.2148c0.1203-0.052,0.2319-0.1217,0.343-0.1916c0.0354-0.0223,0.0745-0.0372,0.1089-0.0612
	c0.0483-0.0338,0.0884-0.0781,0.1344-0.1153c0.0912-0.0732,0.1849-0.143,0.2667-0.2287l1.8242-1.9414h2.5366
	c0.8604,0,1.5601,0.6997,1.5601,1.5601v6.9902c0,0.2764,0.2236,0.5,0.5,0.5s0.5-0.2236,0.5-0.5V14.104
	c0-1.4116-1.1484-2.5601-2.5601-2.5601h-2.7454c-0.0042-0.0001-0.0073-0.0034-0.0114-0.0034H19.0215
	c-0.0042,0-0.0073,0.0033-0.0114,0.0034h-2.7386c-1.417,0-2.5698,1.1484-2.5698,2.5601v32.3457c0,0.0066,0.0019,0.0127,0.002,0.0193
	V49.895z M31.6328,12.5405l-1.1802,1.2583c-0.2935,0.3145-0.708,0.4946-1.1392,0.4946c-0.0005,0-0.0015,0-0.0024,0h-6.8145
	c-0.001,0-0.0015,0-0.0024,0c-0.4302,0-0.8452-0.1802-1.1392-0.4961l-1.1792-1.2568H31.6328z M37.105,49.895
	c0,0.8628-0.7021,1.5645-1.5649,1.5645H16.2686c-0.8628,0-1.5649-0.7017-1.5649-1.5645v-1.4106
	c0.0244,0.0188,0.0524,0.0326,0.0774,0.0505c0.0458,0.0329,0.0931,0.0623,0.1412,0.0921c0.0842,0.0524,0.1711,0.0995,0.2614,0.1421
	c0.0519,0.0244,0.1032,0.0484,0.1569,0.0694c0.0968,0.0378,0.1968,0.067,0.2989,0.093c0.0518,0.0132,0.1016,0.0297,0.1545,0.0397
	c0.1412,0.0266,0.2862,0.0416,0.4344,0.0439c0.0147,0.0002,0.0283,0.0043,0.0431,0.0043h19.2725
	c0.0258,0,0.0497-0.0068,0.0754-0.0076c0.1334-0.0041,0.2645-0.0159,0.392-0.0398c0.0627-0.0117,0.1219-0.0309,0.183-0.0471
	c0.0905-0.024,0.1796-0.0496,0.2658-0.083c0.0614-0.0238,0.1202-0.051,0.1792-0.0793c0.0822-0.0393,0.1612-0.0824,0.2382-0.1299
	c0.053-0.0328,0.1052-0.0652,0.1556-0.1016c0.0231-0.0167,0.0492-0.0294,0.0718-0.0469V49.895z"/>
<path class="st0" d="M31.5269,32.7832l-5.1475,5.1475c-0.1953,0.1953-0.1953,0.5117,0,0.707
	c0.0977,0.0977,0.2256,0.1465,0.3535,0.1465s0.2559-0.0488,0.3535-0.1465l5.1475-5.1475c0.1953-0.1953,0.1953-0.5117,0-0.707
	S31.7222,32.5879,31.5269,32.7832z"/>
<path class="st0" d="M41.6279,32.7832c-0.1953,0.1953-0.1953,0.5117,0,0.707l5.1475,5.1475
	c0.0977,0.0977,0.2256,0.1465,0.3535,0.1465s0.2559-0.0488,0.3535-0.1465c0.1953-0.1953,0.1953-0.5117,0-0.707l-5.1475-5.1475
	C42.1396,32.5879,41.8232,32.5879,41.6279,32.7832z"/>
<path class="st0" d="M26.9902,26.5532l6.7295,4.8525l1.5391,1.1245c0.5005,0.3667,1.0874,0.5498,1.6738,0.5498
	s1.1729-0.1831,1.6733-0.5493l8.2524-5.978c0.2236-0.1616,0.2739-0.4746,0.1123-0.6982c-0.1616-0.2241-0.4756-0.2749-0.6982-0.1123
	l-8.2568,5.9814c-0.6465,0.4741-1.5171,0.4746-2.1665-0.0005l-8.2739-5.9814c-0.2251-0.1616-0.5366-0.1104-0.6982,0.1133
	C26.7158,26.0791,26.7661,26.3916,26.9902,26.5532z"/>
<path class="st0" d="M26.8516,22.5503c-1.0528,0-2.0455,0.5103-2.6603,1.3657c-0.0012,0.0016-0.0031,0.0023-0.0043,0.004
	c-0.0005,0.0007-0.0009,0.0015-0.0014,0.0023c-0.0003,0.0004-0.0007,0.0007-0.001,0.0012
	c-0.0005,0.0007-0.0004,0.0014-0.0009,0.0021c-0.4067,0.5613-0.6207,1.2262-0.6182,1.9218v12.3052
	c-0.001,0.8818,0.3408,1.7109,0.9629,2.334c0.0002,0.0002,0.0004,0.0002,0.0006,0.0004s0.0002,0.0004,0.0004,0.0006
	c0.6226,0.6206,1.4487,0.9624,2.3262,0.9624c0.0024,0,0.0044,0,0.0068,0H46.999c0.0015,0,0.0029,0,0.0044,0
	c0.8799,0,1.7065-0.3418,2.3291-0.9624c0.0002-0.0002,0.0002-0.0004,0.0004-0.0006s0.0004-0.0002,0.0006-0.0004
	c0.6221-0.623,0.9639-1.4521,0.9629-2.3335V25.8472c0-0.7012-0.2184-1.3701-0.6307-1.935
	c-0.0008-0.0011-0.0008-0.0024-0.0016-0.0035c-0.6182-0.8506-1.6138-1.3584-2.6646-1.3584H26.8643
	C26.8599,22.5503,26.856,22.5503,26.8516,22.5503z M48.8545,24.4966c0.0004,0.0005,0.001,0.0007,0.0013,0.0013
	c0.0001,0.0001,0.0001,0.0001,0.0001,0.0002c0.2881,0.3936,0.4404,0.8599,0.4404,1.3491v12.3062
	c0.001,0.6145-0.2373,1.1919-0.6705,1.6264c-0.4335,0.4322-1.0095,0.67-1.6235,0.67c-0.001,0-0.002,0-0.0029,0H26.8613
	c-0.0015,0-0.0029,0-0.0049,0c-0.6116,0-1.187-0.2378-1.6205-0.67c-0.4332-0.4345-0.6714-1.0119-0.6705-1.6269V25.8457
	c-0.0015-0.4858,0.147-0.9482,0.4302-1.3379c0.0005-0.0007,0.0005-0.0015,0.001-0.0022c0.0004-0.0005,0.0011-0.0007,0.0015-0.0012
	c0.4287-0.6001,1.1421-0.9897,1.8643-0.9541h20.1372C47.731,23.5503,48.4243,23.9038,48.8545,24.4966z"/>
</svg>
