<svg width="420" height="422" viewBox="0 0 420 422" fill="none" xmlns="http://www.w3.org/2000/svg">
<g clip-path="url(#clip0_2464_2048)">
<path d="M48.9873 142.919C48.9873 142.919 254.498 50.678 270.703 54.9464C286.908 59.2149 410.555 230.035 410.555 230.035L240.855 324.837L82.2443 308.61L48.9873 142.919Z" fill="#01493D"/>
<path d="M47.2822 258.279L101.858 31.9531C101.858 31.9531 144.889 52.4467 175.81 58.425C206.731 64.4034 259.617 99.4197 308.224 103.691C356.831 107.962 412.259 101.13 419.08 107.962C425.902 114.794 392.645 174.579 389.235 207.035C385.826 239.49 355.121 354.79 355.121 354.79L47.2822 258.279Z" fill="#F2EEFF"/>
<path d="M122.663 107.978L122.093 110.314C121.971 110.815 122.277 111.32 122.777 111.442L360.368 169.583C360.868 169.706 361.372 169.399 361.495 168.898L362.064 166.562C362.187 166.062 361.88 165.557 361.38 165.434L123.789 107.293C123.289 107.171 122.785 107.478 122.663 107.978Z" fill="#CECCEA"/>
<g opacity="0.58">
<path opacity="0.58" d="M114.196 131.959L113.626 134.295C113.504 134.795 113.81 135.3 114.31 135.423L351.901 193.564C352.401 193.686 352.906 193.379 353.028 192.879L353.598 190.543C353.72 190.042 353.413 189.537 352.914 189.415L115.322 131.274C114.822 131.151 114.318 131.458 114.196 131.959Z" fill="#CECCEA"/>
</g>
<path d="M97.1005 179.107L96.5307 181.443C96.4086 181.944 96.7149 182.449 97.2148 182.571L334.806 240.712C335.306 240.834 335.81 240.528 335.933 240.027L336.502 237.691C336.625 237.191 336.318 236.686 335.818 236.563L98.2269 178.422C97.727 178.3 97.2227 178.607 97.1005 179.107Z" fill="#CECCEA"/>
<g opacity="0.58">
<path opacity="0.58" d="M104.365 209.08L103.795 211.416C103.673 211.916 103.98 212.421 104.479 212.544L324.787 266.455C325.287 266.578 325.791 266.271 325.913 265.77L326.483 263.434C326.605 262.934 326.299 262.429 325.799 262.306L105.492 208.395C104.992 208.273 104.487 208.579 104.365 209.08Z" fill="#CECCEA"/>
</g>
<path d="M97.8022 236.686L97.2324 239.021C97.1103 239.522 97.4165 240.027 97.9165 240.149L318.224 294.061C318.724 294.183 319.228 293.876 319.35 293.375L319.92 291.04C320.042 290.539 319.736 290.034 319.236 289.912L98.9286 236C98.4286 235.878 97.9243 236.185 97.8022 236.686Z" fill="#CECCEA"/>
<path d="M48.987 142.92L200.777 289.822L410.554 230.036L369.877 408.669C368.893 412.993 366.273 416.767 362.569 419.197C358.865 421.627 354.365 422.525 350.014 421.701L13.9408 358.105C11.6506 357.671 9.47303 356.773 7.54171 355.466C5.61039 354.159 3.96604 352.471 2.70952 350.504C1.453 348.538 0.610814 346.335 0.234609 344.031C-0.141597 341.728 -0.0438823 339.371 0.521757 337.106L48.987 142.92Z" fill="#1A5B57"/>
<path d="M14.8779 344.481L213.567 265.053L352.85 409.391L14.8779 344.481Z" fill="#01493D"/>
</g>
<defs>
<clipPath id="clip0_2464_2048">
<rect width="420" height="422" fill="white"/>
</clipPath>
</defs>
</svg>
